<svg width="200" height="200" viewBox="0 0 200 200" fill="none" xmlns="http://www.w3.org/2000/svg">
<g clip-path="url(#clip0_15754_29546)">
<path d="M199.771 199.963C133.787 199.963 67.7998 199.959 1.81636 199.998C0.353533 199.998 -0.115822 199.682 0.0288962 198.203C0.173614 196.721 0.0601866 195.215 0.0601866 193.721C0.912848 192.931 1.98454 193.025 3.01321 193.021C7.94926 193.002 12.8853 193.021 17.8253 193.009C21.1812 193.006 21.1929 193.002 21.1929 189.701C21.1968 174.433 21.1929 159.161 21.1929 143.892C21.1929 128.558 21.1929 113.223 21.1968 97.8884C21.1968 96.7229 21.099 95.5457 21.4158 94.3998C23.8565 91.0521 25.7065 91.013 28.5657 94.2473C28.9412 95.3854 28.8238 96.5626 28.8277 97.7241C28.8473 102.785 28.8356 107.846 28.8277 112.906C28.8277 114.197 29.1367 114.991 30.6582 114.991C41.426 114.987 52.1938 114.991 62.9655 114.987C64.397 114.987 64.9016 114.349 64.8977 112.977C64.882 109.214 64.882 105.448 64.8977 101.686C64.9016 100.649 64.8351 99.6013 65.2692 98.6236C65.4765 98.2091 65.8129 97.9079 66.2197 97.6928C67.3344 97.0984 67.1623 96.4765 66.2705 95.8312C66.0632 95.2485 66.2471 94.7049 66.4387 94.1613C66.5952 93.8015 66.8025 93.4808 67.1154 93.2383C69.7555 91.9281 70.1544 89.4056 70.5378 86.8792C70.6942 85.7528 71.4999 85.0567 72.2235 84.3019C73.1192 83.5314 73.8389 82.5732 74.8402 81.9201C75.0005 81.8458 75.1687 81.7989 75.3447 81.7676C76.0644 81.752 76.8467 81.971 77.4021 81.2631C78.0083 80.5943 78.5755 79.8669 79.5415 79.687C81.5989 79.03 83.3511 77.8723 84.9235 76.4136C85.3029 76.1202 85.7136 75.9364 86.2064 76.0811C87.6614 77.4812 88.0447 75.6666 88.8778 75.1816C94.7095 74.0788 100.584 74.3251 106.447 74.6419C107.906 74.7201 109.436 74.6145 110.836 75.2325C111.79 76.2923 112.811 77.1293 114.332 76.2376C114.626 76.2258 114.907 76.2728 115.185 76.3666C115.553 76.5074 115.874 76.7147 116.116 77.0276C116.855 78.7014 118.529 79.0221 119.984 79.601C120.626 79.8552 121.357 79.9647 122.057 80.0898C123.059 80.3597 123.833 81.0128 124.639 81.6151C124.94 81.8106 125.222 82.0335 125.491 82.2682C126.117 82.89 126.786 83.4767 127.212 84.2745C127.373 84.603 127.467 84.9472 127.467 85.3148C127.216 86.8009 128.37 86.9769 129.344 87.3211C129.684 87.5245 129.852 87.8334 129.903 88.2167C129.899 89.171 129.328 90.352 130.905 90.6571C131.155 90.7431 131.374 90.8722 131.55 91.0716C131.64 91.2164 131.695 91.3728 131.722 91.541C131.695 91.9907 131.969 92.2958 132.242 92.6047C132.688 93.1874 132.935 93.8445 133.044 94.5641C133.06 94.744 133.048 94.9278 133.021 95.1077C132.477 96.0815 132.453 97.1375 132.567 98.213C132.403 99.046 132.461 99.75 133.443 100.059C133.897 100.2 134.174 100.571 134.343 101.017C135.348 104.599 134.832 108.26 134.925 111.882C135.004 114.932 134.98 114.979 137.937 114.983C148.009 114.995 158.08 114.995 168.152 114.983C170.886 114.983 170.988 114.881 170.991 112.116C171.007 100.157 170.991 88.1971 171.003 76.2415C171.003 75.1386 170.917 74.0279 171.214 72.9485C175.92 69.3505 176.921 63.4919 179.815 58.7871C180.05 58.4038 180.222 57.9697 180.308 57.5239C180.441 56.8238 180.641 56.0221 179.835 55.631C179.143 55.2907 178.446 55.4589 177.965 56.1551C177.738 56.4836 177.422 56.7065 177.038 56.8395C175.759 57.1914 174.449 57.0702 173.154 57.0702C123.821 57.078 74.4842 57.0741 25.1511 57.0741C21.6623 57.0741 21.7092 57.0546 23.172 60.1403C24.4471 62.8349 26.1485 65.334 26.9151 68.2593C26.0625 70.2226 26.5787 71.6931 28.5109 72.663C28.9803 75.3615 29.0468 78.0601 28.4757 80.7508C25.6322 82.9604 24.7326 82.9722 21.6544 80.8524C20.9739 78.5607 21.1577 76.2454 21.498 73.9301C23.2541 72.4909 22.9295 70.8875 22.0104 69.1002C19.7223 64.6652 17.5319 60.1794 15.3025 55.7131C14.0822 53.2688 14.4107 51.7475 16.5072 49.7021C20.0586 49.1389 23.6335 49.5417 27.1928 49.4478C29.5943 49.3853 31.9998 49.3462 34.3974 49.4635C36.2905 49.5574 36.8576 48.7947 36.8459 46.9683C36.7872 37.942 36.8146 28.9195 36.8185 19.8931C36.8185 15.2821 37.6946 14.543 42.22 15.157C43.6124 15.3447 44.3047 16.0526 44.3908 17.4292C44.5042 19.1813 44.4299 20.9334 44.4612 22.6855C44.4846 23.9096 45.0322 24.4376 46.2447 24.4415C53.903 24.4767 61.5652 24.461 69.2236 24.4532C70.6746 24.4532 71.1362 23.7493 71.144 22.4078C71.1479 20.9217 70.9993 19.4199 71.3396 17.9455C71.539 17.175 72.2001 16.8152 72.7515 16.3576C73.4204 15.8492 73.2053 15.1726 73.0957 14.5156C73.6042 13.0373 73.6277 11.6333 72.466 10.4052C72.3487 9.57222 72.7242 8.91519 73.2209 8.30508C73.3656 8.17993 73.5299 8.08216 73.7098 8.00785C75.0279 7.82013 76.2913 7.59721 76.4829 5.89596C76.5455 5.34844 76.9444 4.9065 77.4999 4.85175C79.1817 4.6914 79.4477 3.41254 79.7606 2.14149C80.3825 1.285 81.1921 0.792228 82.2795 0.827426C83.3316 2.39961 84.7514 1.73867 86.1086 1.44535C86.754 1.50792 87.4424 1.80906 87.9469 1.10119C88.3732 0.526286 88.7878 -0.0642614 89.6288 -0.00168689C96.4892 -0.00168689 103.342 -0.00168689 110.194 -0.00168689C111.086 -0.111192 111.325 0.702277 111.825 1.14812C112.349 1.78169 113.061 1.53139 113.718 1.52748C115.037 2.11411 116.261 1.95768 117.395 1.07381C118.31 0.917377 119.042 1.34367 119.754 1.8208C119.894 1.93812 120.004 2.08283 120.094 2.23926C120.469 2.8963 120.094 3.78016 120.731 4.35898C121.224 4.74225 121.842 4.69923 122.401 4.85175C122.875 4.99254 123.192 5.29759 123.34 5.77081C123.512 6.33399 123.461 6.96364 123.821 7.47206C124.252 8.01568 124.834 7.83186 125.386 7.80058C125.566 7.78493 125.738 7.8084 125.914 7.85533C126.168 7.98048 126.348 8.17993 126.485 8.42241C126.794 9.16939 127.295 9.86945 127.048 10.7494C126.133 11.8523 125.926 12.9864 126.915 14.1675C126.989 14.324 127.029 14.4921 127.04 14.6681C127.048 15.1492 126.868 15.6419 127.169 16.0956C127.474 16.385 127.971 16.3264 128.245 16.6823C128.351 16.8504 128.433 17.0225 128.491 17.2102C128.793 19.0053 128.652 20.8161 128.636 22.6151C128.62 24.0387 129.223 24.5745 130.603 24.5432C131.683 24.5158 132.806 24.3789 133.822 24.9538C135.899 28.2546 135.868 29.1581 133.584 31.7744C132.399 32.2594 131.151 32.1147 129.927 32.1147C102.739 32.1225 75.552 32.1186 48.3646 32.1225C44.469 32.1225 44.4885 32.1225 44.4612 36.0804C44.4416 38.6733 44.5863 41.2701 44.3673 43.8631C44.5355 45.1576 44.4573 46.456 44.4846 47.7544C44.5081 48.8964 45.0439 49.4009 46.1626 49.4087C46.8119 49.4087 47.4611 49.4361 48.1104 49.4361C82.651 49.4361 117.192 49.4361 151.732 49.4361C154.152 49.4361 155.372 48.2316 155.393 45.8224C155.397 45.2397 155.385 44.6531 155.491 44.0782C155.358 41.4931 155.452 38.9079 155.428 36.3228C155.385 31.6102 155.788 32.146 151.091 32.0834C149.87 32.0678 148.631 32.232 147.438 31.7979C144.798 29.0368 144.809 27.4216 147.488 24.7778C149.405 24.2264 151.369 24.5158 153.309 24.4923C154.791 24.4767 155.436 23.9096 155.405 22.4078C155.374 20.8513 155.389 19.2869 155.436 17.7265C155.483 16.08 156.254 15.1844 157.939 15.1531C158.198 15.1492 158.46 15.1296 158.718 15.1218C162.567 15.024 163.028 15.4503 163.036 19.2361C163.048 28.2742 163.036 37.3123 163.044 46.3504C163.044 49.4322 163.059 49.44 166.212 49.4439C171.023 49.4518 175.834 49.44 180.645 49.4518C181.615 49.4518 182.6 49.3814 183.527 49.7842C184.634 51.0083 185.401 52.4162 185.561 54.0745C185.647 54.9857 185.85 55.8578 186.077 56.7378C185.948 58.4938 185.053 59.9877 184.161 61.38C179.549 68.5957 178.411 76.3862 178.493 84.9159C178.834 119.688 178.634 154.467 178.634 189.243C178.634 191.767 179.922 193.03 182.498 193.033C187.438 193.037 192.374 192.998 197.314 193.053C199.782 193.08 200.009 193.318 199.962 195.716C199.935 197.132 200.189 198.563 199.782 199.967L199.771 199.963Z" fill="#2D0C16"/>
<path d="M25.0174 90.6581C25.0174 88.6166 25.0174 86.579 25.0174 84.5375C25.2482 84.0447 25.6588 83.8961 26.1673 83.9469C26.664 84.1972 27.149 84.6313 27.7123 84.0877C28.4163 83.4111 27.8257 82.8089 27.5871 82.187C27.4815 81.6708 27.7592 81.3149 28.076 80.9668V72.3824C27.0161 71.4438 26.7462 70.1766 26.6249 68.8547C24.6732 64.803 22.7176 60.7474 20.6172 56.3868H23.007C73.7364 56.3868 124.47 56.3868 175.199 56.3868C175.978 56.3868 176.756 56.3476 177.534 56.3242C178.575 55.8862 179.017 56.2577 178.884 57.3449C178.829 57.7986 178.602 58.2014 178.407 58.6082C176.185 63.1996 173.717 67.6697 171.75 72.3824C171.726 83.8883 171.706 95.3981 171.687 106.904C171.683 109.376 171.632 111.847 171.71 114.315C171.746 115.445 171.354 115.715 170.275 115.711C158.768 115.676 147.265 115.676 135.758 115.711C134.608 115.715 134.154 115.492 134.209 114.229C134.315 111.699 134.15 109.153 134.268 106.622C134.365 104.538 133.876 102.524 133.783 100.471C133.661 100.314 133.556 100.146 133.462 99.9699C133.231 98.6363 132.691 97.3535 132.813 95.9612C133.032 95.4489 133.345 94.9952 133.458 94.4125C133.896 92.1794 133.771 91.9408 131.573 91.5067L131.162 91.0883C130.775 90.7988 130.489 90.4625 130.599 89.9306C131.311 89.0976 131.733 88.2255 130.963 87.193C130.857 87.0522 130.763 86.9036 130.673 86.755C130.29 86.0706 129.77 85.4917 129.296 84.8738C128.78 84.1972 128.123 84.1425 127.403 84.5531C127.223 84.604 127.055 84.5727 126.903 84.471C126.351 83.8374 125.8 83.1999 125.248 82.5664C124.986 80.8573 124.553 81.8369 123 81C122.844 80.9179 121.145 80.0978 121 80C119.944 79.1787 121 80 119.366 78.765C118.675 78.2432 115.517 77.2867 115.106 76.7117C114.672 74.3456 117.097 75.4642 115.536 76.4145C115.415 76.5436 115.27 76.6414 115.106 76.7117L114.379 76.657C113.334 76.3793 112.114 76.9034 111.218 75.9569C109.173 75.0731 106.951 75.3781 104.831 75.1904C101.428 74.8893 97.9708 74.9362 94.5602 75.1748C92.5732 75.3156 90.5237 75.21 88.5798 75.8435C88 76.0325 87 76.3441 86.2565 76.3441C86.2565 76.3441 85.4547 76.5788 85.0675 76.7313C84.9814 76.7313 84.8954 76.7391 84.8132 76.743C85.0675 76.7313 85.0675 76.7313 82.4782 77.6777C81.9462 78.28 81.2735 78.5968 80.4795 78.6672C76 81 76.2944 80.2003 74.9607 82.1675C74.3075 83.0631 73.5331 83.8296 72.6452 84.4866C72.6452 84.4866 71.9219 85.5027 71.0759 86.6914C69.9037 88.3384 69.3365 90.4364 68.069 92.0112V92.0112C67.9595 92.5196 66.6095 94.4916 66.5 95C66.3905 95.5084 66.567 97.4161 66.039 98.1318C65.4367 98.7732 65.5853 99.571 65.5853 100.334C65.5853 104.874 65.5384 109.419 65.6127 113.959C65.6362 115.254 65.3858 115.731 63.9504 115.723C52.5333 115.66 41.1163 115.664 29.6953 115.719C28.3811 115.727 28.1034 115.312 28.1073 114.08C28.1425 107.334 28.0878 100.588 28.0643 93.8376C27.6692 93.5639 27.3876 93.2314 27.5011 92.7035C27.5676 92.2459 28.0604 91.8118 27.5597 91.3229C27.1256 90.9005 26.754 91.3503 26.3511 91.4011C25.7253 91.4715 25.1973 91.3659 25.0096 90.6541L25.0174 90.6581Z" fill="#F7AA4C"/>
<path d="M137.422 28.2891C139.464 28.2891 141.502 28.2891 143.543 28.2891C144.419 29.6735 145.487 30.839 147.114 31.3474C149.641 31.3709 152.168 31.4413 154.69 31.3904C155.789 31.3669 156.13 31.7072 156.106 32.8062C156.028 36.4981 156.04 40.1939 156.02 43.8858C155.656 44.2925 155.171 44.5076 154.651 44.5076C149.907 44.5272 145.159 44.9065 140.43 44.2847C138.865 41.2303 136.092 41.4297 133.21 41.2967C130.554 41.1716 129.028 42.3957 127.667 44.2925C126.732 44.6601 125.751 44.6054 124.781 44.6054C108.169 44.6132 91.5582 44.6054 74.947 44.6132C73.9066 44.6132 72.874 44.5545 71.861 44.3199C71.7475 44.269 71.5793 44.2417 71.5285 44.1439C69.2404 39.8614 65.3134 41.5862 61.9145 41.594C60.3461 41.594 60.1818 43.5338 59.0632 44.269C56.2588 44.93 53.4153 44.4802 50.5953 44.5858C49.0503 44.6445 47.5014 44.6249 45.9565 44.578C45.182 44.5545 44.3998 44.5193 43.8131 43.8897C43.7935 40.1235 43.7974 36.3534 43.7309 32.5872C43.7153 31.6133 44.0869 31.32 44.9826 31.41C45.4324 31.4569 45.89 31.4178 46.3476 31.4178C74.7397 31.4178 103.128 31.4178 131.52 31.4178C132.298 31.4178 133.077 31.3748 133.855 31.3513C134.375 30.9055 135.001 30.7803 135.662 30.7568C136.925 31.0345 136.835 30.2289 136.734 29.4115C136.788 28.9305 136.933 28.5042 137.426 28.2969L137.422 28.2891Z" fill="#EF8E2D"/>
<path d="M153.021 121.934C158.668 121.934 164.316 121.973 169.964 121.903C171.298 121.887 171.732 122.212 171.72 123.612C171.65 130.82 171.65 138.028 171.72 145.235C171.736 146.651 171.267 146.937 169.953 146.929C158.59 146.882 147.228 146.882 135.866 146.929C134.626 146.933 134.199 146.632 134.211 145.321C134.274 138.047 134.274 130.773 134.211 123.502C134.199 122.173 134.657 121.895 135.877 121.911C141.592 121.965 147.302 121.934 153.017 121.934H153.021Z" fill="#D66413"/>
<path d="M46.6688 146.901C41.0835 146.901 35.502 146.87 29.9167 146.924C28.6573 146.936 28.0901 146.745 28.1058 145.274C28.184 138 28.1645 130.725 28.1175 123.455C28.1097 122.286 28.403 121.899 29.6312 121.906C41.1226 121.953 52.6139 121.953 64.1053 121.906C65.3413 121.902 65.619 122.301 65.6112 123.463C65.5642 130.737 65.5447 138.011 65.6229 145.282C65.6385 146.76 65.0597 146.94 63.8081 146.928C58.0937 146.874 52.3832 146.905 46.6688 146.905V146.901Z" fill="#D66413"/>
<path d="M134.5 168.688C134.5 166.646 134.5 164.69 134.5 162.649V162.5V159C134.524 157.443 134.551 155.553 134.5 154C134.469 153.05 134.534 153.126 135.446 153.126C147.129 153.154 158.812 153.154 170.495 153.126C171.433 153.126 171.707 153.42 171.699 154.343C171.645 161.222 171.641 168.105 171.617 174.985C171.246 175.395 170.761 175.595 170.233 175.599C166.681 175.642 163.122 175.911 159.578 175.442C159.402 175.372 159.167 175.333 159.078 175.176C157.544 172.536 155.057 172.497 152.385 172.399C149.718 172.302 147.801 173.127 146.429 175.36C142.787 175.974 138.153 175.657 134.5 175.567C134.043 175.556 134.817 175.333 134.5 174.981C134.457 174.073 134.543 173.166 134.5 172.259C134.459 170.501 134.674 170.001 134.5 168.837V168.688Z" fill="#F7AA4C"/>
<path d="M28.2112 174.983C28.1916 168.1 28.1838 161.221 28.1291 154.337C28.1212 153.407 28.4068 153.121 29.3416 153.125C41.0285 153.152 52.7154 153.152 64.3985 153.125C65.3294 153.125 65.6149 153.407 65.611 154.337C65.5562 161.221 65.5523 168.1 65.5288 174.983C65.1573 175.394 64.6723 175.593 64.1442 175.597C60.5928 175.64 57.0335 175.91 53.4899 175.441C53.2513 175.355 52.9697 175.269 52.8367 175.053C50.3882 171.182 46.6216 172.582 43.2188 172.703C41.6308 172.762 41.4353 174.608 40.3362 175.359C36.6987 175.98 33.0416 175.652 29.3885 175.566C28.9309 175.554 28.5241 175.331 28.2073 174.979L28.2112 174.983Z" fill="#F7AA4C"/>
<path d="M159.263 174.988C163.381 174.988 167.5 174.988 171.623 174.988C171.642 180.765 171.603 186.545 171.728 192.321C171.763 193.929 170.891 193.729 169.909 193.725C160.303 193.718 150.693 193.725 141.087 193.725C139.206 193.725 137.321 193.682 135.439 193.741C134.501 193.772 134.219 193.44 134.227 192.517C134.281 186.674 134.285 180.831 134.309 174.988C138.427 174.988 142.546 174.988 146.665 174.988C147.897 177.315 149.934 177.812 152.344 177.538C153.044 177.46 153.76 177.48 154.464 177.538C156.142 177.667 157.507 177.214 158.367 175.653C158.551 175.317 158.848 175.047 159.267 174.992L159.263 174.988Z" fill="#E79D4C"/>
<path d="M53.1691 174.988C57.2877 174.988 61.4063 174.988 65.5288 174.988C65.5484 180.831 65.5562 186.674 65.611 192.517C65.6188 193.44 65.3372 193.741 64.3985 193.741C52.7115 193.714 41.0285 193.714 29.3416 193.741C28.4068 193.741 28.1212 193.444 28.1291 192.517C28.1838 186.674 28.1877 180.831 28.2112 174.988C32.3298 174.988 36.4484 174.988 40.567 174.988C41.799 177.315 43.8368 177.812 46.2462 177.538C46.9463 177.46 47.6621 177.48 48.3661 177.538C50.044 177.667 51.4091 177.214 52.2696 175.653C52.4534 175.317 52.7506 175.047 53.1691 174.992V174.988Z" fill="#E79D4C"/>
<path d="M140.155 43.8867C145.443 43.8867 150.731 43.8867 156.019 43.8867C156.038 45.5762 156.019 47.2618 156.097 48.9474C156.14 49.9017 155.757 50.238 154.849 50.1442C154.462 50.1051 154.071 50.1403 153.68 50.1403C117.833 50.1403 81.9899 50.1246 46.1429 50.1833C44.2224 50.1833 43.4245 49.7961 43.714 47.7742C43.8939 46.4992 43.7883 45.1812 43.8078 43.8867C48.9668 43.8867 54.1258 43.8867 59.2887 43.8867C59.9145 44.2817 59.9106 44.9505 60.0201 45.5684C59.9967 46.8551 60.9432 46.3545 61.5925 46.4093C64.0527 46.421 66.5129 46.1902 68.9574 46.5461C69.1373 46.6009 69.329 46.6517 69.4776 46.7691C70.2834 47.4183 71.1047 47.868 71.9417 46.8512C72.7905 45.8187 71.8205 45.279 71.2886 44.6298C71.2142 44.3365 71.2494 44.0784 71.5115 43.8867C90.3248 43.8867 109.134 43.8867 127.948 43.8867C128.421 44.1839 128.452 44.665 128.468 45.1499C128.006 46.9842 129.156 46.6674 130.228 46.4523C132.7 46.3858 135.172 46.2098 137.632 46.554C137.749 46.5852 137.874 46.6204 137.984 46.6869C138.825 47.211 139.689 48.1144 140.644 47.0194C141.563 45.9634 140.647 45.1656 140.033 44.3717C139.983 44.1839 140.03 44.0197 140.17 43.8867H140.155Z" fill="#D28539"/>
<path d="M88.5916 6.51185C96.5393 6.49229 104.487 6.48056 112.435 6.44145C113.741 6.43363 114.911 7.48957 116.28 6.88729C117.254 7.20799 117.981 7.91586 118.802 8.48294C119.119 8.81537 119.385 9.19082 119.737 9.49587C120.426 10.4501 121.509 11.244 121.055 12.6754C121.509 14.7326 121.967 16.7897 121.701 18.9172C120.934 19.7112 119.925 19.629 118.967 19.629C106.271 19.6486 93.5707 19.6486 80.8746 19.629C79.9124 19.629 78.9072 19.7073 78.1406 18.9172C78.1406 17.8769 78.1445 16.8327 78.1484 15.7924C78.3049 15.5148 78.2306 15.0846 78.4926 14.9203C80.0102 13.9621 79.6621 12.7419 79.0285 11.467C79.0559 11.2832 79.1302 11.1189 79.2514 10.9781C80.859 10.5518 82.3453 10.0004 82.4118 7.95497C82.7364 7.01244 83.679 7.16888 84.3596 6.85601C84.8602 6.84818 85.3609 6.83645 85.8615 6.82863C86.8002 6.93031 87.7585 7.23145 88.6033 6.51576L88.5916 6.51185Z" fill="#D66413"/>
<path d="M78.1352 18.9141C92.6539 18.9141 107.177 18.9141 121.695 18.9141C121.738 20.9125 122.536 23.4351 121.425 24.7531C120.354 26.0241 117.768 25.1441 115.856 25.152C103.934 25.1911 92.0125 25.1402 80.0948 25.2067C78.5029 25.2145 77.8693 24.843 78.0492 23.1848C78.2017 21.7729 78.1196 20.3376 78.1391 18.9141H78.1352Z" fill="#BE631D"/>
<path d="M21.9682 73.5512C18.9761 67.4933 15.9213 61.4665 13.0192 55.3655C11.7754 52.753 12.3503 50.3556 16.0543 50.207C15.9957 50.7819 16.156 51.6423 15.8392 51.8848C14.2238 53.1246 15.2017 54.2822 15.7923 55.4633C18.1977 60.2933 20.6384 65.1037 23.0203 69.9454C24.0177 71.9752 23.654 73.0702 21.9721 73.5512H21.9682Z" fill="#2D0C16"/>
<path d="M171.748 72.3833C171.549 71.3977 171.803 70.5256 172.257 69.6378C174.299 65.6487 176.262 61.6204 178.323 57.643C178.863 56.5988 178.593 56.2899 177.537 56.3211C177.498 54.573 178.754 54.8076 179.837 54.8506C181.026 54.8976 181.026 55.7775 181.053 56.6575C181.077 57.4045 180.811 58.038 180.486 58.6794C178.46 62.7155 176.391 66.732 174.455 70.8111C173.853 72.0782 173.067 72.5749 171.745 72.3833H171.748Z" fill="#2D0C16"/>
<path d="M147.112 31.3471C144.749 31.4293 143.795 30.6158 143.54 28.2888C143.357 26.1534 145.128 25.2774 147.112 25.2344C145.985 27.272 145.985 29.3095 147.112 31.3471Z" fill="#2D0C16"/>
<path d="M26.194 84.164C25.8029 84.2891 25.4117 84.4104 25.0206 84.5355C22.7599 84.336 21.8603 83.284 21.9698 80.9648C24.0076 81.7548 26.0454 81.7588 28.0792 80.9648C28.3296 81.4263 27.7976 81.7275 27.8367 82.1459C28.0714 83.4561 27.4613 84.0779 26.194 84.164Z" fill="#2D0C16"/>
<path d="M73.4648 8.41753C74.826 5.82069 76.9694 3.96301 79.3161 2.30869C79.4882 2.18745 79.7855 2.25003 80.0241 2.22656C80.1492 3.94736 79.9654 5.42178 77.6734 5.31227C77.3331 5.29663 76.9655 5.49999 76.985 5.8598C77.118 8.53877 75.3071 8.48793 73.4648 8.41753Z" fill="#2D0C16"/>
<path d="M137.423 28.2888C137.294 28.6838 137.164 29.0788 137.035 29.4738C137.059 30.342 136.629 30.8348 135.784 30.9795C135.197 31.4136 134.544 31.484 133.852 31.3432C135.005 29.3056 134.45 27.272 133.852 25.2344C135.901 25.2461 136.926 26.4585 137.423 28.2888Z" fill="#2D0C16"/>
<path d="M183.777 50.207C187.262 50.3752 188.162 53.3123 185.772 56.4019C185.616 56.2924 185.322 56.1907 185.318 56.0773C185.252 54.0006 183.989 52.2407 183.777 50.2109V50.207Z" fill="#2D0C16"/>
<path d="M71.8963 17.3677C71.7829 15.2793 71.6812 13.187 72.26 11.1377C72.2522 10.7935 72.2992 10.4806 72.6825 10.3438C73.8924 11.3971 74.1296 12.8272 73.3943 14.634C73.6916 15.2832 73.6916 15.9364 73.3943 16.5856C73.0149 17.0744 72.4869 17.2778 71.9002 17.3677H71.8963Z" fill="#2D0C16"/>
<path d="M82.3633 1.05099C84.5536 0.632519 86.7087 -0.0949097 88.989 0.264894C88.7309 0.761579 88.4727 1.26218 88.2146 1.75886C87.5653 2.05609 86.916 2.05609 86.2628 1.75886C85.7583 1.9896 85.2733 2.33377 84.7453 2.42763C83.6188 2.62317 82.3711 2.85392 82.3633 1.04708V1.05099Z" fill="#2D0C16"/>
<path d="M25.0199 90.6562C25.4619 91.0473 26.0016 91.1529 26.5688 91.1529C27.3901 91.3172 27.8986 91.7435 27.8204 92.6586C27.5779 93.124 28.0551 93.433 28.0746 93.8397C26.0407 92.2597 24.0069 92.248 21.973 93.8397C21.5701 91.4189 23.4593 91.196 25.0238 90.6562H25.0199Z" fill="#2D0C16"/>
<path d="M117.079 0.914995C117.224 1.06361 117.365 1.21222 117.51 1.35693C116.352 2.98778 115.01 2.85872 113.567 1.76366C112.918 2.06089 112.268 2.06089 111.615 1.76366C110.946 1.47817 110.802 0.918906 110.837 0.269695C112.965 0.042862 114.979 0.871975 117.079 0.914995Z" fill="#2D0C16"/>
<path d="M126.902 84.4729C127.008 84.4729 127.114 84.4729 127.215 84.469C128.162 83.5812 128.995 83.812 129.589 84.8327C130.02 85.568 130.688 86.092 131.115 86.8195C131.815 87.8168 132.093 88.7788 130.853 89.5962C129.808 89.8035 129.84 88.9196 129.57 88.3369C129.527 88.0475 129.605 87.6994 129.206 87.5821C128.283 87.0267 127.509 86.3502 127.266 85.2316C127.141 84.9813 127.02 84.7271 126.895 84.4768L126.902 84.4729Z" fill="#F7AA4C"/>
<path d="M124.49 82.0644C123.724 81.5599 122.961 81.0593 122.194 80.5548C121.4 80.0268 120.223 79.976 119.949 78.7871C120.473 77.0194 121.502 77.6099 122.538 78.2317C123.321 78.6776 123.806 79.448 124.482 80.0073C125.308 80.6917 125.241 81.3761 124.49 82.0644Z" fill="#F7AA4C"/>
<path d="M74.9649 82.1686C75.0118 79.3957 77.6636 77.5029 80.4563 78.2498C80.5541 78.9421 79.9557 79.0985 79.5606 79.4114C78.9231 79.6812 78.4655 80.217 77.8944 80.5847C77.0065 81.0579 76.236 81.7305 75.2934 82.1177C75.18 82.1177 75.0705 82.1412 74.9609 82.1725L74.9649 82.1686Z" fill="#F7AA4C"/>
<path d="M71.0283 86.7605C69.9761 87.2337 69.8745 88.4461 69.143 89.1696C68.3451 89.0758 68.2669 88.5556 68.3999 87.9142C68.6854 86.5493 71.2121 84.5117 72.6476 84.4883C72.276 85.3643 71.0674 85.6459 71.0283 86.7605Z" fill="#F7AA4C"/>
<path d="M84.3488 6.85153C83.8091 7.22307 83.2732 7.59069 82.7335 7.96223C82.2876 8.56451 81.74 8.97907 80.946 8.95169C80.6487 8.88129 80.5353 8.63491 80.4102 8.40025C80.504 5.79168 81.1259 5.5492 84.3488 6.85544V6.85153Z" fill="#2D0C16"/>
<path d="M79.2191 11.4636C80.8423 13.2704 80.8032 13.5716 78.785 15.1047C78.5386 15.2924 78.3508 15.5583 78.1357 15.7891C78.0145 14.6158 78.0105 13.4503 78.4721 12.3318C78.6989 12.0268 78.5112 11.3619 79.2152 11.4636H79.2191Z" fill="#D66413"/>
<path d="M127.289 11.5127C127.489 12.4161 127.77 13.3117 127.544 14.2581C127.395 14.5514 127.235 14.8291 126.828 14.6414C125.154 13.12 125.166 11.8529 126.871 10.7266C127.465 10.7461 127.454 11.0903 127.289 11.5166V11.5127Z" fill="#2D0C16"/>
<path d="M26.6257 68.8555C27.6035 69.8293 27.6544 71.1825 28.0768 72.3831C27.2828 72.3088 26.1955 72.6921 25.9256 71.6009C25.6948 70.6584 25.4015 69.5086 26.6257 68.8516V68.8555Z" fill="#2D0C16"/>
<path d="M121.051 12.6751C120.832 11.4744 119.874 10.6727 119.401 9.60892C119.264 9.2061 119.448 9.10441 119.811 9.17872C120.449 9.29605 121.423 8.82674 121.63 9.71842C121.857 10.7079 122.182 11.8772 121.055 12.6751H121.051Z" fill="#2D0C16"/>
<path d="M123.335 4.86328C124.555 5.57116 124.938 6.9126 125.689 7.97637L125.568 8.05458C124.813 8.25013 124.062 8.32053 123.315 8.00765C122.951 7.40537 122.885 6.74052 122.924 6.05611C123.268 5.76279 122.99 5.33259 123.155 5.00016C123.213 4.95323 123.276 4.91021 123.335 4.86328Z" fill="#2D0C16"/>
<path d="M120.215 2.49609C121.279 3.25481 122.632 3.63026 123.34 4.86219L123.266 4.94041C122.953 5.24937 122.449 4.90913 122.151 5.27675C121.467 5.31586 120.806 5.24937 120.2 4.88566C119.906 4.08783 119.883 3.29392 120.215 2.5V2.49609Z" fill="#2D0C16"/>
<path d="M133.134 95.7924C133.036 95.4913 133.123 95.0962 132.696 94.9711C132.673 94.8459 132.692 94.7247 132.747 94.6074C132.833 93.6257 133.318 92.4838 131.761 92.1709C131.511 92.0105 131.362 91.8072 131.445 91.4904L131.574 91.5139C133.521 90.8568 134.656 91.6468 134.073 93.481C133.838 94.2202 134.808 95.6281 133.134 95.7924Z" fill="#F7AA4C"/>
<path d="M79.2195 11.465C78.9731 11.7544 78.7228 12.0438 78.4764 12.3332C78.3395 12.1924 78.2065 12.0477 78.0696 11.9069C77.7685 11.1247 77.7685 10.3464 78.0696 9.56425C78.1987 9.43519 78.3278 9.30222 78.4608 9.17316C79.0279 8.80945 79.6498 9.04019 80.2482 9.00499C81.0031 10.19 79.9822 10.5811 79.3017 11.1247C79.2508 11.2303 79.2235 11.3437 79.2235 11.465H79.2195Z" fill="#2D0C16"/>
<path d="M118.62 8.82801C117.818 8.20618 116.637 8.04583 116.277 6.8882C116.285 6.73959 116.289 6.59097 116.297 6.44627C117.142 6.18033 117.983 5.94958 118.636 6.83736C119.445 7.51003 119.512 8.17489 118.616 8.83192L118.62 8.82801Z" fill="#2D0C16"/>
<path d="M124.491 82.0632C124.913 81.1245 124.675 80.4597 123.822 79.8418C123.286 79.4546 122.961 78.778 122.543 78.2305C125.089 79.3881 125.535 80.0999 125.257 82.5677C125.003 82.3995 124.749 82.2313 124.495 82.0632H124.491Z" fill="#F7AA4C"/>
<path d="M131.855 91.9062C134.014 92.0744 134.124 92.4068 132.747 94.6087C132.442 93.9634 132.141 93.3181 131.836 92.6728C131.664 92.4147 131.648 92.1565 131.855 91.9062Z" fill="#F7AA4C"/>
<path d="M117.452 77.4925C116.881 77.602 116.506 76.8902 115.903 77.1288C115.622 77.0232 115.235 77.121 115.109 76.7142C115.113 76.5695 115.117 76.4287 115.121 76.284C115.731 75.8226 116.338 75.2633 117.151 75.8499C117.753 76.284 117.89 76.8472 117.444 77.4964L117.452 77.4925Z" fill="#F7AA4C"/>
<path d="M88.5934 6.51168C87.8463 8.07996 86.8998 7.90397 85.8516 6.82455C86.7003 6.14014 87.6703 6.53124 88.5934 6.51168Z" fill="#D66413"/>
<path d="M67.8591 91.8906C67.644 92.4108 67.4289 92.9309 67.2177 93.4511C67.1199 93.7483 67.206 94.1472 66.7796 94.2685C66.0834 92.2583 66.1304 92.1527 67.8591 91.8867V91.8906Z" fill="#F7AA4C"/>
<path d="M118.621 8.8305C119.047 8.16956 119.09 7.5047 118.641 6.83594C119.99 7.13708 119.11 8.55283 119.81 9.17857C119.673 9.32328 119.536 9.46798 119.399 9.60877C119.141 9.35065 118.879 9.08862 118.621 8.8305Z" fill="#2D0C16"/>
<path d="M126.831 14.6372C127.069 14.5081 127.308 14.383 127.547 14.2539C127.582 14.5042 127.613 14.7584 127.648 15.0087C127.504 15.5328 127.813 16.0647 127.609 16.5848C127.351 16.9642 127.089 16.9642 126.831 16.5848C126.534 15.9356 126.538 15.2825 126.831 14.6333V14.6372Z" fill="#2D0C16"/>
<path d="M127.608 16.5878C127.396 16.0559 126.919 15.5201 127.647 15.0117C128.3 15.4341 127.917 16.0481 127.932 16.5878C127.823 16.5878 127.717 16.5878 127.608 16.5878Z" fill="#2D0C16"/>
<path d="M120.216 2.49653C120.212 3.29045 120.204 4.08827 120.2 4.88219C119.469 4.08436 119.965 3.09881 119.789 2.21495C120.051 2.125 120.165 2.26579 120.216 2.49653Z" fill="#2D0C16"/>
<path d="M80.4557 9.18845C79.7908 9.18454 79.1259 9.17672 78.4609 9.17281C78.9303 8.45711 79.9433 9.10632 80.4127 8.39062C80.5496 8.53533 80.6826 8.68003 80.8194 8.82865C80.8742 9.12588 80.7569 9.2432 80.4596 9.18845H80.4557Z" fill="#2D0C16"/>
<path d="M118.64 6.83485C117.912 6.37727 117.103 6.43594 116.301 6.44376C117.173 6.00965 118.061 5.49341 118.64 6.83485Z" fill="#2D0C16"/>
<path d="M78.0699 9.5625V11.9051C77.4871 11.123 77.4871 10.3447 78.0699 9.5625Z" fill="#2D0C16"/>
<path d="M123.316 8.00391C124.067 8.01955 124.818 8.03519 125.569 8.05084C124.807 8.59836 124.056 8.58272 123.316 8.00391Z" fill="#2D0C16"/>
<path d="M126.828 14.6367V16.5883C126.261 15.9391 126.261 15.2859 126.828 14.6367Z" fill="#2D0C16"/>
<path d="M73.3906 16.5883V14.6367C73.9578 15.2859 73.9578 15.9391 73.3906 16.5883Z" fill="#2D0C16"/>
<path d="M111.617 1.76172H113.569C112.92 2.33271 112.27 2.33271 111.617 1.76172Z" fill="#2D0C16"/>
<path d="M86.2617 1.76172H88.2135C87.5642 2.33271 86.9149 2.33271 86.2617 1.76172Z" fill="#2D0C16"/>
<path d="M122.148 5.27566C122.426 4.85328 122.841 4.88066 123.263 4.93932C123.326 5.3617 123.353 5.77626 122.927 6.05393C122.903 5.55725 122.645 5.29522 122.148 5.27175V5.27566Z" fill="#2D0C16"/>
<path d="M156.844 81.3024L149.053 81.4197C148.591 81.6857 148.173 81.5605 147.774 81.275C147.41 80.9934 147.089 80.6688 146.8 80.309C146.511 79.9101 146.389 79.4877 146.655 79.0262C146.655 78.3731 146.655 77.72 146.655 77.063C146.745 75.7997 147.336 75.1583 148.67 75.4399C151.4 74.9198 154.13 74.912 156.86 75.4399C157.333 75.131 157.748 75.3109 158.155 75.5885C158.526 75.8819 158.843 76.2182 159.023 76.668C159.093 76.9534 159.042 77.2155 158.874 77.458C159.195 77.9742 159.187 78.4944 158.89 79.0184C159.312 80.2191 158.385 80.6571 157.658 81.2085C157.396 81.3298 157.126 81.365 156.844 81.3102V81.3024Z" fill="#2D0C16"/>
<path d="M52.7801 77.0545C52.5807 77.7115 53.3825 78.3646 52.7958 79.0256C53.0305 80.3357 52.4203 80.9576 51.153 81.0436C48.3173 81.685 45.4425 81.2392 42.5873 81.3096C41.7151 81.1609 41.2027 80.6486 41.0541 79.7726C41.0423 79.3854 41.0775 78.9904 41.0111 78.6149C40.6004 76.3114 42.1571 75.2359 44.4725 75.142C46.8232 75.0482 49.2091 74.8644 51.5285 75.5449C52.3499 75.7091 52.8584 76.1354 52.7801 77.0506V77.0545Z" fill="#2D0C16"/>
<path d="M165.121 105.544C165.442 106.061 165.43 106.581 165.137 107.105C165.395 108.708 164.468 109.252 163.087 109.393C161.531 109.432 159.974 109.471 158.413 109.51C156.657 109.471 156.055 108.869 156.02 107.113C156.02 106.46 156.02 105.806 156.02 105.153C156.109 103.89 156.7 103.249 158.034 103.53C159.724 103.014 161.413 103.018 163.103 103.53C164.663 103.315 165.332 103.988 165.117 105.544H165.121Z" fill="#2D0C16"/>
<path d="M143.539 107.113C143.539 106.46 143.539 105.806 143.539 105.153C143.629 103.89 144.22 103.249 145.553 103.53C147.243 103.014 148.933 103.018 150.622 103.53C152.183 103.315 152.852 103.988 152.637 105.544C152.957 106.061 152.946 106.581 152.652 107.105C152.911 108.708 151.984 109.252 150.603 109.393C149.046 109.432 147.489 109.471 145.929 109.51C144.173 109.471 143.57 108.869 143.535 107.113H143.539Z" fill="#2D0C16"/>
<path d="M150.605 109.393C151.388 108.717 152.475 108.322 152.655 107.105C153.652 107.047 154.087 107.688 154.051 108.517C154.008 109.471 153.41 110.175 152.463 110.449C151.529 110.715 150.848 110.414 150.609 109.397L150.605 109.393Z" fill="#F7AA4C"/>
<path d="M163.086 109.393C163.868 108.717 164.956 108.322 165.135 107.105C166.133 107.047 166.567 107.688 166.532 108.517C166.489 109.471 165.89 110.175 164.944 110.449C164.009 110.715 163.328 110.414 163.09 109.397L163.086 109.393Z" fill="#F7AA4C"/>
<path d="M152.635 105.544C152.373 104.461 151.701 103.792 150.621 103.53C150.754 102.486 151.489 102.345 152.319 102.459C153.101 102.564 153.598 103.065 153.707 103.847C153.821 104.68 153.68 105.415 152.635 105.544Z" fill="#F7AA4C"/>
<path d="M165.12 105.544C164.858 104.461 164.185 103.792 163.105 103.53C163.238 102.486 163.974 102.345 164.803 102.459C165.585 102.564 166.082 103.065 166.191 103.847C166.305 104.68 166.164 105.415 165.12 105.544Z" fill="#F7AA4C"/>
<path d="M143.538 107.113C143.933 108.318 144.73 109.112 145.931 109.511C145.137 110.527 144.171 110.527 143.346 109.698C142.517 108.869 142.517 107.903 143.538 107.113Z" fill="#F7AA4C"/>
<path d="M156.018 107.113C156.413 108.318 157.211 109.112 158.411 109.511C157.617 110.539 156.647 110.52 155.826 109.698C155.005 108.877 154.989 107.903 156.018 107.113Z" fill="#F7AA4C"/>
<path d="M145.554 103.529C144.549 103.658 144.099 104.475 143.54 105.152C142.523 104.878 142.75 104.1 142.969 103.47C143.215 102.762 143.817 102.422 144.608 102.422C145.386 102.422 145.574 102.872 145.558 103.525L145.554 103.529Z" fill="#F7AA4C"/>
<path d="M158.035 103.529C157.029 103.658 156.58 104.475 156.02 105.152C155.003 104.878 155.23 104.1 155.449 103.47C155.696 102.762 156.298 102.422 157.088 102.422C157.866 102.422 158.054 102.872 158.038 103.525L158.035 103.529Z" fill="#F7AA4C"/>
<path d="M148.675 75.4349C147.686 75.5796 147.212 76.3696 146.661 77.0579C145.644 76.7842 145.871 76.0059 146.09 75.3763C146.336 74.6684 146.939 74.3281 147.729 74.3281C148.507 74.3281 148.695 74.7779 148.679 75.431L148.675 75.4349Z" fill="#F7AA4C"/>
<path d="M158.017 75.937C157.634 75.7688 157.247 75.6045 156.863 75.4364C156.996 74.3922 157.732 74.2514 158.561 74.3648C159.343 74.4704 159.84 74.971 159.949 75.7532C160.063 76.5862 159.922 77.3214 158.878 77.4505C158.85 77.2041 158.823 76.9577 158.792 76.7113C158.627 76.3593 158.623 75.847 158.017 75.9331V75.937Z" fill="#F7AA4C"/>
<path d="M26.1953 84.1665C26.8563 83.5837 27.6972 83.1535 27.8381 82.1484C28.3583 82.5825 29.0779 82.8876 28.6751 83.8145C28.37 84.5224 27.8459 84.9721 27.134 85.109C26.4808 85.2341 26.2814 84.714 26.1953 84.1665Z" fill="#F7AA4C"/>
<path d="M51.1562 81.0454C51.8173 80.4626 52.6582 80.0324 52.799 79.0273C53.3192 79.4615 54.0389 79.7665 53.636 80.6934C53.3309 81.4013 52.8068 81.851 52.095 81.9879C51.4418 82.113 51.2423 81.5929 51.1562 81.0454Z" fill="#F7AA4C"/>
<path d="M156.844 81.3035C156.906 81.0884 157.02 80.9593 157.266 81.0454C159.065 81.4678 158.85 79.9699 159.202 79.0156C160.153 79.2268 160.426 79.9034 160.239 80.7443C160.043 81.6242 159.417 82.2304 158.545 82.4025C157.7 82.5706 157.031 82.2539 156.848 81.2996L156.844 81.3035Z" fill="#F7AA4C"/>
<path d="M147.911 80.9241C148.295 81.0884 148.674 81.2566 149.057 81.4208C148.263 82.4494 147.293 82.4298 146.472 81.6085C145.651 80.7873 145.631 79.8134 146.664 79.0234C146.828 79.4028 146.992 79.7861 147.156 80.1654C147.172 80.6543 147.422 80.9085 147.911 80.9202V80.9241Z" fill="#F7AA4C"/>
<path d="M159.202 79.0195C159.354 79.8643 159.937 80.7521 158.881 81.4521C158.173 81.9214 157.68 81.6868 157.266 81.0493C157.911 80.4548 158.768 80.0286 158.893 79.0156C158.994 79.0156 159.1 79.0156 159.202 79.0156V79.0195Z" fill="#F7AA4C"/>
<path d="M117.452 77.4944C117.538 75.4295 116.263 75.9926 115.125 76.286C115.461 75.2026 116.185 74.9445 117.167 75.3825C118.321 75.8949 118.172 76.8257 117.855 77.7799C117.605 77.8464 117.503 77.7056 117.452 77.4944Z" fill="#F7AA4C"/>
<path d="M52.779 77.0564C52.3604 76.5558 51.9459 76.0513 51.5273 75.5507C51.6916 74.6081 52.2196 74.5808 52.8454 75.097C53.6355 75.7462 53.7333 76.4345 52.779 77.0564Z" fill="#F7AA4C"/>
<path d="M27.818 92.6579C27.3995 92.1573 26.9849 91.6528 26.5664 91.1522C26.7307 90.2097 27.2587 90.1823 27.8845 90.6986C28.6746 91.3478 28.7724 92.0361 27.818 92.6579Z" fill="#F7AA4C"/>
<path d="M85.109 76.6048C84.1938 76.8629 83.2785 77.121 82.3633 77.3792C82.6605 75.541 83.036 75.4354 85.109 76.6048Z" fill="#F7AA4C"/>
<path d="M41.0584 79.7773L42.5916 81.3143C42.0714 81.9792 41.5786 81.6976 41.1249 81.2439C40.6712 80.7903 40.3896 80.2975 41.0545 79.7773H41.0584Z" fill="#F7AA4C"/>
<path d="M120.2 78.9465L119.422 78.5594C120.333 77.1123 121.092 77.0341 122.543 78.2348C121.667 78.1565 120.529 77.214 120.204 78.9505L120.2 78.9465Z" fill="#F7AA4C"/>
<path d="M130.797 89.9373C130.746 89.8239 130.719 89.7105 130.715 89.5853C131.513 88.7601 131.528 87.8176 131.122 86.8164C132.322 88.2674 132.244 89.0261 130.797 89.9373Z" fill="#F7AA4C"/>
<path d="M140.156 43.8862C140.156 44.0192 140.156 44.1521 140.156 44.289C140.418 46.0059 139.992 46.5965 138.142 47.0658C135.295 47.0423 132.447 47.0228 129.6 46.9993C128.763 46.7842 128.235 46.2562 128.02 45.4193C127.992 44.9109 127.969 44.3985 127.941 43.8901C128.18 41.7978 129.201 40.824 131.282 40.7888C133.155 40.7536 135.029 40.7418 136.902 40.7888C139.104 40.8435 139.926 41.657 140.156 43.8901V43.8862Z" fill="#2D0C16"/>
<path d="M71.504 43.8856C71.504 44.1476 71.504 44.4135 71.504 44.6756C71.7622 46.2556 70.9095 46.897 69.4897 47.0651C66.6423 47.0456 63.7988 47.0221 60.9514 47.0026C60.4898 46.6819 59.8054 46.5841 59.7741 45.8332C59.2539 45.2739 59.4221 44.5465 59.2852 43.8895C59.5198 41.8089 60.5368 40.8272 62.5941 40.7881C64.4559 40.7529 66.3216 40.7529 68.1833 40.7881C70.2172 40.8272 71.2928 41.8597 71.5001 43.8895L71.504 43.8856Z" fill="#2D0C16"/>
<path d="M135.781 30.9823C136.2 30.4817 136.618 29.9772 137.033 29.4766C137.471 30.0358 137.557 30.6811 137.076 31.1856C136.681 31.6002 136.153 31.4516 135.777 30.9823H135.781Z" fill="#EF8E2D"/>
<path d="M159.262 174.987C158.499 177.541 156.782 178.464 154.177 178.143C152.843 177.979 151.47 178.119 150.117 178.112C147.833 178.096 146.918 177.263 146.664 174.987C146.523 173.125 147.731 172.171 149.253 172.014C151.557 171.78 153.911 171.838 156.231 171.975C157.991 172.081 158.718 173.508 159.266 174.987H159.262Z" fill="#2D0C16"/>
<path d="M53.168 174.987C52.4053 177.541 50.6883 178.464 48.0834 178.143C46.7496 177.979 45.3767 178.119 44.0234 178.112C41.7392 178.096 40.824 177.263 40.5698 174.987C40.429 173.125 41.6375 172.171 43.159 172.014C45.4628 171.78 47.8174 171.838 50.1368 171.975C51.8969 172.081 52.6244 173.508 53.1719 174.987H53.168Z" fill="#2D0C16"/>
<path d="M138.141 47.0658C139.021 46.2914 140.174 45.7126 140.155 44.2891C141.328 44.5198 141.759 45.2903 141.614 46.4049C141.497 47.3318 140.945 47.9536 140.022 48.1218C139.142 48.2821 138.301 48.2469 138.137 47.0658H138.141Z" fill="#D28539"/>
<path d="M69.4883 47.0658C70.2745 46.3697 71.2797 45.8495 71.5026 44.6763C72.2966 44.6645 72.9811 44.8679 72.9576 45.8143C72.9302 46.9759 72.2809 47.7541 71.174 48.0748C70.2979 48.329 69.633 48.0944 69.4883 47.0619V47.0658Z" fill="#D28539"/>
<path d="M128.017 45.418C128.545 45.9459 129.073 46.4739 129.597 46.998C127.958 47.5846 127.43 47.0566 128.017 45.418Z" fill="#D28539"/>
<path d="M59.7764 45.8359C60.1675 46.227 60.5626 46.6181 60.9537 47.0053C60.3826 46.7941 58.8181 47.5841 59.7764 45.8359Z" fill="#D28539"/>
<path d="M80.4585 9.18897C80.5798 9.06773 80.6971 8.9504 80.8184 8.82916C81.4403 8.49674 81.9957 8.02352 82.7388 7.95703C82.7271 10.6008 82.1795 11.1092 79.3047 11.1249C79.6919 10.4796 80.0752 9.83427 80.4624 9.18897H80.4585Z" fill="#D66413"/>
<path d="M158.02 75.9348C158.106 75.5554 158.176 75.0548 158.727 75.3599C159.388 75.7236 158.986 76.2477 158.798 76.7131C158.54 76.4549 158.282 76.1968 158.023 75.9348H158.02Z" fill="#F7AA4C"/>
<path d="M147.912 80.9228C147.704 81.2435 147.423 81.3412 147.121 81.0909C146.762 80.7937 146.73 80.4613 147.153 80.168C147.403 80.4183 147.657 80.6725 147.908 80.9228H147.912Z" fill="#F7AA4C"/>
<path d="M66 107C66 88.2223 81.2223 73 100 73V73C118.778 73 134 88.2223 134 107V196H66V107Z" fill="#FFE7CA" stroke="#2D0C16" stroke-width="4"/>
</g>
<defs>
<clipPath id="clip0_15754_29546">
<rect width="200" height="200" fill="white"/>
</clipPath>
</defs>
</svg>
