<svg width="259" height="200" viewBox="0 0 259 200" fill="none" xmlns="http://www.w3.org/2000/svg">
<path d="M232.902 97.1445V191.097C232.902 193.888 230.639 196.151 227.848 196.151H242.199C244.991 196.151 247.253 193.888 247.253 191.097V107.253L232.902 97.1445Z" fill="#FFD064"/>
<path d="M237.144 97.1445L11.4844 107.253V191.097C11.4844 193.888 13.747 196.151 16.5384 196.151H26.9142L40.047 191.097L47.1706 196.151H48.6191L60.6713 191.097L69.6351 196.151H211.566L226.176 191.097L231.829 196.151H232.09C234.881 196.151 237.144 193.888 237.144 191.097V97.1445Z" fill="#FFE07D"/>
<path d="M176.663 196.151H155.764L129.366 191.097L102.967 196.151H79.7422V40.0234H176.663V196.151Z" fill="#FFE07D"/>
<path d="M48.6211 107.254H69.6371V196.152H48.6211V107.254Z" fill="#FFD064"/>
<path d="M19.2773 106.745H230.361V72.8154C230.361 68.6286 226.966 65.2344 222.78 65.2344H171.271L144.006 75.3424L48.6203 65.2344H26.8583C22.6716 65.2344 19.2773 68.6286 19.2773 72.8154V106.745Z" fill="#FFE07D"/>
<path d="M231.881 65.2344H216.719C220.905 65.2344 224.3 68.6286 224.3 72.8154V106.745H239.462V72.8154C239.462 68.6281 236.068 65.2344 231.881 65.2344Z" fill="#FFD064"/>
<path d="M242.831 107.254H148.81L80.6707 102.2L48.6204 107.254H6.30434C4.90893 107.254 3.77734 106.122 3.77734 104.727V88.7575C3.77734 87.3621 4.90893 86.2305 6.30434 86.2305H48.6199L80.6702 91.2845L149.587 86.2305H242.831C244.226 86.2305 245.358 87.3621 245.358 88.7575V104.727C245.358 106.122 244.226 107.254 242.831 107.254Z" fill="#D19A6E"/>
<path d="M48.6211 65.2344H69.6371V106.745H48.6211V65.2344Z" fill="#FFD064"/>
<path d="M48.6211 86.2305H69.6371V107.254H48.6211V86.2305Z" fill="#C38C66"/>
<path d="M252.435 86.2305H237.273C238.669 86.2305 239.8 87.3621 239.8 88.7575V104.727C239.8 106.122 238.669 107.254 237.273 107.254H252.435C253.831 107.254 254.962 106.122 254.962 104.727V88.7575C254.962 87.3616 253.831 86.2305 252.435 86.2305Z" fill="#C38C66"/>
<path d="M231.823 196.252H211.566V150.386C211.566 144.792 216.101 140.258 221.695 140.258C227.288 140.258 231.823 144.792 231.823 150.386V196.252Z" fill="#FBF5D9"/>
<path d="M47.1704 196.252H26.9141V150.386C26.9141 144.792 31.4485 140.258 37.0423 140.258C42.636 140.258 47.1704 144.792 47.1704 150.386V196.252Z" fill="#FBF5D9"/>
<path d="M155.769 196.154H102.973V142.472C102.973 127.893 114.791 116.074 129.371 116.074C143.95 116.074 155.769 127.893 155.769 142.472L155.769 196.154Z" fill="#FBF5D9"/>
<path d="M79.7422 74.625H176.862V96.7397H79.7422V74.625Z" fill="#D19A6E"/>
<path d="M80.25 96.7422H177.17V107.254H80.25V96.7422Z" fill="#FFD064"/>
<path d="M74.6932 196.154H63.7852V40.0266L74.6932 34.9727L79.7472 116.074L74.6932 196.154Z" fill="#9D6858"/>
<path d="M74.6914 34.9727V196.154H84.7994V40.0266L74.6914 34.9727Z" fill="#744647"/>
<path d="M184.849 196.154H173.941V40.0266L184.849 34.9727L189.503 118.091L184.849 196.154Z" fill="#9D6858"/>
<path d="M184.848 34.9727V196.154H194.956V40.0266L184.848 34.9727Z" fill="#744647"/>
<path d="M74.2927 19.1303C72.5365 19.1303 70.8399 18.3737 69.2377 18.8473C61.8625 21.026 56.4805 27.8504 56.4805 35.9318C56.4805 38.1904 58.3115 40.022 60.5707 40.022H82.9608C85.22 40.022 87.051 38.1909 87.051 35.9318C87.051 26.0942 84.1303 19.1303 74.2927 19.1303Z" fill="#D19A6E"/>
<path d="M74.2923 18.1211C72.536 18.1211 70.8409 18.3794 69.2383 18.8529C76.6131 21.0322 81.9966 27.852 81.9966 35.9334C81.9966 38.192 80.1655 40.0236 77.9064 40.0236H88.0144C90.273 40.0236 92.1045 38.1925 92.1045 35.9334C92.1045 26.0958 84.1299 18.1211 74.2923 18.1211Z" fill="#C38C66"/>
<path d="M184.445 19.1303C182.689 19.1303 180.992 18.3737 179.39 18.8473C172.014 21.026 166.633 27.8504 166.633 35.9318C166.633 38.1904 168.464 40.022 170.723 40.022H193.113C195.372 40.022 197.203 38.1909 197.203 35.9318C197.203 26.0942 194.283 19.1303 184.445 19.1303Z" fill="#D19A6E"/>
<path d="M184.449 18.1211C182.692 18.1211 180.997 18.3794 179.395 18.8529C186.769 21.0322 192.153 27.852 192.153 35.9334C192.153 38.192 190.322 40.0236 188.063 40.0236H198.171C200.43 40.0236 202.261 38.1925 202.261 35.9334C202.261 26.0958 194.286 18.1211 184.449 18.1211Z" fill="#C38C66"/>
<path d="M213.919 126.991H229.121C231.215 126.991 232.912 125.295 232.912 123.201C232.912 121.107 231.215 119.41 229.121 119.41H213.919C211.826 119.41 210.129 121.107 210.129 123.201C210.129 125.295 211.826 126.991 213.919 126.991Z" fill="black"/>
<path d="M29.6421 126.991H44.8439C46.9378 126.991 48.6344 125.295 48.6344 123.201C48.6344 121.107 46.9378 119.41 44.8439 119.41H29.6421C27.5482 119.41 25.8516 121.107 25.8516 123.201C25.8516 125.295 27.5487 126.991 29.6421 126.991Z" fill="black"/>
<path d="M99.1953 57.4116C99.1953 59.5055 100.892 61.2021 102.986 61.2021H155.782C157.876 61.2021 159.573 59.5055 159.573 57.4116C159.573 55.3177 157.876 53.6211 155.782 53.6211H102.986C100.892 53.6211 99.1953 55.3182 99.1953 57.4116Z" fill="black"/>
<path d="M252.447 82.4968H243.263V72.8755C243.263 66.6055 238.161 61.504 231.891 61.504H225.749C223.655 61.504 221.959 63.2011 221.959 65.2945C221.959 67.3884 223.655 69.085 225.749 69.085H231.891C233.981 69.085 235.682 70.7852 235.682 72.8755V82.4968H198.758V69.085H209.199C211.293 69.085 212.99 67.3884 212.99 65.2945C212.99 63.2011 211.293 61.504 209.199 61.504H198.758V43.8433C202.835 43.5462 206.063 40.1428 206.063 35.992C206.063 25.3736 198.36 16.5265 188.25 14.7288V3.79049C188.25 1.69662 186.554 0 184.46 0C182.367 0 180.669 1.69662 180.669 3.79049V14.7288C170.56 16.5265 162.857 25.3736 162.857 35.992C162.857 36.0931 162.868 36.1916 162.872 36.2917H156.231C154.137 36.2917 152.44 37.9883 152.44 40.0822C152.44 42.176 154.137 43.8727 156.231 43.8727H170.161V70.8938H88.6035V43.8727H139.711C141.805 43.8727 143.501 42.176 143.501 40.0822C143.501 37.9883 141.805 36.2917 139.711 36.2917H95.8924C95.8964 36.1916 95.9075 36.0931 95.9075 35.992C95.9075 25.3736 88.2047 16.5265 78.0952 14.7288V3.79049C78.0952 1.69662 76.3986 0 74.3048 0C72.2109 0 70.5143 1.69662 70.5143 3.79049V14.7288C60.4043 16.5265 52.702 25.3736 52.702 35.992C52.702 40.1428 55.93 43.5462 60.0065 43.8433V61.504H26.8731C20.6031 61.504 15.5016 66.6055 15.5016 72.8755V82.4968H6.31749C2.83377 82.4968 0 85.3305 0 88.8142V104.784C0 108.268 2.83377 111.101 6.31749 111.101H7.70784V191.156C7.70784 196.032 11.6757 200 16.5523 200H242.212C247.089 200 251.056 196.032 251.056 191.156V111.101H252.447C255.93 111.101 258.764 108.268 258.764 104.784V88.8142C258.764 85.331 255.93 82.4968 252.447 82.4968ZM102.984 154.828C105.078 154.828 106.775 153.131 106.775 151.037V142.527C106.775 130.061 116.916 119.919 129.382 119.919C141.848 119.919 151.99 130.06 151.99 142.527V192.418H106.774V167.557C106.774 165.463 105.077 163.766 102.984 163.766C100.89 163.766 99.1931 165.463 99.1931 167.557V192.418H88.603V100.59H170.161V192.418H159.571V142.527C159.571 125.881 146.028 112.338 129.382 112.338C112.736 112.338 99.1936 125.881 99.1936 142.527V151.037C99.1936 153.131 100.89 154.828 102.984 154.828ZM67.587 43.8722H81.022V192.418H67.587V43.8722ZM177.742 43.8722H191.177V192.418H177.742V43.8722ZM170.438 35.992C170.438 28.2604 176.728 21.9702 184.459 21.9702C192.191 21.9702 198.481 28.2604 198.481 35.992C198.481 36.1572 198.347 36.2917 198.182 36.2917H173.951H170.737C170.572 36.2912 170.438 36.1572 170.438 35.992ZM170.161 78.4743V93.0086H88.6035V78.4743H170.161ZM60.5822 36.2912C60.4169 36.2912 60.2825 36.1567 60.2825 35.9915C60.2825 28.2599 66.5727 21.9697 74.3042 21.9697C82.0358 21.9697 88.326 28.2599 88.326 35.9915C88.326 36.1567 88.1916 36.2912 88.0263 36.2912H60.5822ZM23.0826 72.8755C23.0826 70.7852 24.7827 69.085 26.8731 69.085H60.0065V82.4968H23.0826V72.8755ZM7.58098 90.0777H60.006V103.52H7.58098V90.0777ZM15.2888 191.155V111.101H60.006V192.419H50.9745V150.441C50.9745 142.766 44.7308 136.522 37.0564 136.522C29.3819 136.522 23.1377 142.766 23.1377 150.441V192.419H16.5523C15.8554 192.419 15.2888 191.852 15.2888 191.155ZM43.3935 192.418H30.7186V150.44C30.7186 146.946 33.5615 144.103 37.0564 144.103C40.5507 144.103 43.3935 146.946 43.3935 150.44V192.418ZM228.046 192.418H215.371V150.44C215.371 146.946 218.214 144.103 221.708 144.103C225.203 144.103 228.046 146.946 228.046 150.44V192.418ZM243.475 191.155C243.475 191.852 242.909 192.418 242.212 192.418H235.627V150.44C235.627 142.765 229.382 136.522 221.708 136.522C214.033 136.522 207.79 142.766 207.79 150.44V192.418H198.758V111.101H243.475V191.155ZM251.183 103.52H198.758V90.0777H251.183V103.52Z" fill="black"/>
</svg>
