<svg width="266" height="200" viewBox="0 0 266 200" fill="none" xmlns="http://www.w3.org/2000/svg">
<g clip-path="url(#clip0_15754_29233)">
<path d="M47.2644 23.0326C53.2738 17.0302 60.714 14.7269 69.0127 13.7847C77.7582 12.7866 86.5524 11.614 94.7325 7.87995C97.2103 6.74926 99.2972 5.4022 99.8695 2.61036C100.5 1 102 0 102.5 0H102.892C104.581 0.893387 104.213 2.40342 105.586 4.20171C106.958 6 108.5 6.5 111.211 8.41738C119.021 11.6419 127.264 12.8983 135.591 13.7777C138 13.7777 140.463 14.4757 140.463 14.4757C144.986 15.3341 149.334 16.6114 152.984 19.5847C153.438 20.0035 152.984 19.5847 154.408 20.7643C156.351 22.374 157.228 22.8372 157.228 22.8372C157.772 23.6608 158.749 23.0396 159.405 23.4793C160.941 24.6728 163.523 24.6659 163.816 27.2902C163.74 28.0091 162.895 28.2952 162.853 29.0351C163.174 30.2705 164.207 31.3244 163.789 32.7343C163.614 33.3764 163.3 33.9417 163.454 34.6885C164.186 38.2481 164.158 38.2551 160.376 37.3059C159.433 36.7754 158.952 35.9867 159.001 34.8909C160.068 33.174 160.962 31.5268 157.646 31.5966C155.671 30.8149 154.771 29.0979 153.898 27.346C153.563 26.2502 155.441 23.5491 151.979 24.7217C151.267 24.7356 150.744 24.4425 150.471 23.7725C150.192 19.9128 150.018 19.8081 146.081 21.1412C144.232 21.2249 142.585 20.4432 140.854 19.9825C140.567 19.836 140.316 19.6336 140.121 19.3823C139.06 16.1647 137.817 18.2377 136.61 19.2706C134.746 20.2827 132.611 18.5517 130.796 19.8779C129.756 22.4673 130.405 25.1544 130.335 27.7787C130.217 32.4062 130.287 37.0337 130.314 41.6611C130.314 42.9035 130.042 44.2506 131.285 45.1579C133.658 46.0234 136.114 45.5837 138.508 45.5348C145.774 45.3952 153.047 46.0722 160.285 45.1579C160.871 44.7461 161.297 44.1738 161.73 43.6154C163.53 42.8058 163.565 39.6231 166.364 40.1396C167.767 41.3959 167.627 43.1548 167.913 44.774C168.06 45.5767 168.765 45.9536 169.233 46.5189C169.616 47.8869 169.603 49.2549 169.254 50.6299C168.877 51.1953 168.011 50.8533 167.662 51.4814L167.592 51.4116C166.811 52.305 167.662 53.5823 166.86 54.4757C165.666 55.2015 164.431 55.1387 163.174 54.713C162.867 54.5524 162.644 54.3081 162.511 53.9871C162.379 53.0588 163.823 52.4027 163.195 51.5582C162.546 50.6857 161.534 51.6001 160.669 51.5791C152.747 51.97 144.825 51.293 136.931 51.97C135.061 53.3101 134.702 54.8109 134.5 56.5C134.339 57.8261 134.097 60.0473 135 61.5C133.283 63.8312 133.542 63.7633 132 62.5C130.869 60.6713 130.817 64.6659 130.287 62.7953C129.945 60.1919 130.538 65.4336 130.287 62.7953C130.328 64.7077 129.979 66.5154 128.381 67.709C126.804 68.8885 125.115 69.6493 123.921 67.1576C123.844 66.7667 123.83 66.3758 123.879 65.985C124.452 61.5669 124.41 57.1419 123.942 52.7238C123.726 52.4655 123.495 52.2143 123.23 52.0049C119.252 51.3697 115.28 51.5163 111.309 51.9909C110.73 52.0817 110.15 52.0677 109.571 51.97C104.853 51.5024 100.142 51.4326 95.4305 52.0328C94.6348 52.1864 93.8321 52.1864 93.0365 52.0468C89.1907 51.6699 85.345 50.9998 81.576 52.4376C80.5919 53.7917 80.9478 55.3481 80.9478 56.8138C80.9199 70.431 80.9409 84.0482 80.9199 97.6653C80.9199 99.2706 81.1153 100.904 80.4872 102.46C79.0494 103.8 77.6604 106.343 75.4758 104.724C75.406 88.538 75.4758 71.3523 75.427 55.1666C75.427 53.9243 75.7969 52.6191 75.0571 51.4465L75.1059 51.3837C64.4062 50.7904 53.6995 50.944 42.9928 51.3069C42.4415 52.2422 42.9789 53.3589 42.4833 54.3012C41.2131 55.2853 39.866 55.2085 38.4701 54.6013C37.3184 53.7917 38.3514 52.319 37.4999 51.4116L37.465 51.4605C37.1021 50.8602 36.2785 51.1883 35.8737 50.6648C35.5038 49.3038 35.5735 47.9358 35.8178 46.5678C36.104 46.0164 36.4809 45.4999 36.5577 44.8578C37.3045 39.1066 39.2309 33.7533 41.8622 28.6582C35.2176 28.9653 28.587 28.3581 21.9843 29.056C18.8435 29.2375 16.1284 31.2127 12.9388 31.2057C12.0803 29.6423 11.6057 28.044 12.4223 26.3061C15.1024 24.3378 18.2712 23.9609 21.4329 23.5491C28.5591 22.921 35.6992 23.4584 42.8253 23.263C44.312 23.2211 45.8196 23.5212 47.2853 23.0187L47.2644 23.0326Z" fill="#191832"/>
<path d="M265.699 198.717L264.918 198.634C263.717 197.287 263.899 195.612 263.899 194.02C263.871 178.665 263.864 163.31 263.899 147.955C263.899 146.259 263.626 144.444 265.092 143.083C265.295 143.069 265.497 143.083 265.699 143.139V198.724V198.717Z" fill="#A59EAD"/>
<path d="M265.092 143.074C265.064 159.623 265.036 176.179 264.994 192.727C264.994 194.695 264.938 196.664 264.91 198.625C264.038 198.66 264.673 200.139 263.605 199.986C262.14 199.504 260.625 199.756 259.138 199.756C239.156 199.735 219.173 199.735 199.191 199.756C197.934 199.756 196.65 199.532 195.415 199.993C194.493 199.993 193.565 199.993 192.644 199.993C184.289 199.588 175.942 199.588 167.587 199.993C166.198 199.993 164.809 199.993 163.42 199.993C157.62 199.588 151.82 199.595 146.013 199.993H142.544C137.756 199.386 132.934 200.021 128.139 199.672C127.015 197.969 127.622 196.454 128.634 194.975C130.889 193.781 133.331 194.486 135.69 194.284C137.373 194.137 139.117 194.667 140.702 193.739C141.588 192.957 141.567 191.911 141.574 190.864C141.574 182.684 141.574 174.496 141.574 166.316C141.574 165.269 141.616 164.223 140.66 163.49C136.067 162.596 131.496 162.492 126.945 163.608C125.786 164.739 126.142 166.191 126.135 167.531C126.107 174.643 126.135 181.755 126.114 188.867C126.114 190.235 126.24 191.631 125.633 192.937C123.958 194.863 122.262 194.863 120.545 192.992C119.679 191.003 120.042 188.888 120.028 186.829C119.979 180.352 120.028 173.882 120 167.405C120 166.058 120.335 164.585 119.065 163.539C116.169 162.366 113.146 163.183 110.201 162.959C108.721 162.848 107.207 163.022 105.804 162.345C104.883 161.808 104.247 160.412 102.865 161.235C101.393 162.108 101.183 163.636 101.176 165.151C101.142 172.724 101.33 180.29 101.128 187.862C101.093 189.126 101.204 190.396 100.89 191.631C100.59 192.825 100.143 193.9 98.5381 193.223C97.1003 190.682 98.0286 187.904 97.7355 185.245C97.6587 184.428 97.6866 183.612 97.7145 182.788C97.8053 181.385 97.7913 179.975 97.7215 178.566C97.6936 177.554 97.6727 176.535 97.7215 175.522C97.7704 172.263 97.7634 168.997 97.7145 165.737C97.7983 163.099 96.0604 162.945 94.0293 162.834C91.7749 162.708 88.9412 163.706 87.8873 160.412C88.1036 154.472 88.0548 148.539 87.9082 142.607C88.3619 140.639 89.9812 140.387 91.5865 140.171C93.0522 139.968 94.5598 140.192 96.0045 139.857C98.0775 137.721 97.1352 135.327 96.5978 132.975C96.3256 132.78 96.0534 132.591 95.7602 132.438C89.5484 132.068 83.3506 132.368 77.1527 132.298C76.3081 132.291 75.5544 132.465 75.0309 133.184C74.1933 136.493 74.7726 139.836 74.7028 143.158C74.7238 143.591 74.7168 144.017 74.6749 144.442C74.6051 158.911 74.6749 173.38 74.633 187.841C74.633 189.565 74.8704 191.324 74.1096 192.978C72.6997 194.584 71.1084 195.163 69.2029 193.795C68.7144 193.111 68.5608 192.315 68.5608 191.499C68.5818 177.33 68.2607 163.155 68.7144 148.993C71.8342 145.852 71.9948 142.565 69.1541 139.138C69.0005 135.592 69.4472 132.04 68.9028 128.508C68.6725 127.824 68.4422 127.14 68.2118 126.456C70.8013 124.606 70.9967 122.75 68.2118 120.9C68.1839 119.351 68.8121 118.025 69.6008 116.747C72.1693 117.068 71.9459 119.832 73.4326 121.103C74.2073 122.575 73.3279 124.572 74.9402 125.772C82.1989 126.561 89.4507 126.302 96.6885 125.87C96.9887 125.716 97.3097 125.577 97.6238 125.444C98.6498 124.914 100.255 125.025 100.374 123.427C100.499 121.766 98.7824 121.822 97.8751 121.124C96.1302 118.283 94.1549 115.582 92.5706 112.629C92.5008 111.694 92.41 110.536 93.5896 110.431C95.2507 110.277 96.8002 110.885 97.7564 112.364C98.4404 113.425 98.8662 114.633 99.4734 115.742C100.178 117.055 101.176 117.515 102.6 117.18C102.97 117.299 103.228 117.522 103.396 117.871C104.38 121.235 104.91 124.599 103.598 127.998C102.705 131.342 103.263 134.748 103.187 138.126C103.173 138.88 103.654 139.368 104.31 139.682C112.441 140.164 120.559 140.234 128.662 139.606C129.897 138.901 129.751 137.7 129.751 136.562C129.765 133.128 129.779 129.688 129.667 126.247C132.131 123.329 133.869 123.573 135.718 127.077C135.963 130.134 135.774 133.198 135.851 136.262C135.879 137.484 135.593 138.817 136.947 139.606C145.071 140.304 153.188 140.101 161.292 139.675C163.183 138.642 162.408 136.842 162.422 135.362C162.45 133.219 162.848 131.021 161.934 128.948C160.231 125.36 160.287 121.759 161.829 118.143C162.953 115.833 162.527 113.397 162.359 110.989C162.192 110.752 162.01 110.522 161.801 110.319C160.3 109.475 158.807 110.166 157.313 110.347C156.762 110.396 156.217 110.354 155.666 110.256C148.344 109.977 141.023 109.747 133.715 110.417C132.885 110.577 132.054 110.577 131.224 110.431C123.874 109.712 116.518 109.991 109.168 110.284C108.624 110.396 108.072 110.424 107.514 110.375C106.244 110.166 104.987 109.782 103.675 110.096C102.886 110.347 102.614 111.317 101.756 111.471C99.6967 111.422 97.6098 111.436 96.6746 109.042C96.2558 106.767 97.1073 105.168 99.257 104.282C100.409 103.968 101.546 103.982 102.663 104.421C105.608 106.934 108.47 106.131 111.304 104.184C117.055 103.8 122.806 103.765 128.55 104.184C131.356 106.341 134.169 106.404 136.996 104.198C142.831 103.814 148.659 103.717 154.486 104.24C156.357 105.392 158.304 106.159 160.594 106.097C163.344 106.02 165.717 107.06 167.65 109.049C170.553 108.581 171.272 105.259 173.834 104.345C175.362 105.175 176.381 103.584 177.742 103.535C180.136 103.458 182.14 103.675 181.03 106.934C175.725 109.007 172.124 113.055 169.262 117.683C167.741 120.139 166.505 123.099 168.934 125.933C175.963 126.275 182.977 126.512 189.971 125.765C192.162 122.973 190.717 120.412 189.468 117.85C188.735 116.35 187.116 115.289 187.256 113.355C187.975 111.541 189.908 111.373 191.248 110.396C194.235 113.963 196.427 117.808 197.041 122.596C197.278 124.474 196.308 126.051 196.671 127.803C196.42 132.2 196.015 136.597 196.887 140.974C218.064 140.994 239.24 141.029 260.416 141.001C262.37 141.001 264.073 141.127 265.078 143.06L265.092 143.074Z" fill="#191832"/>
<path d="M163.42 27.6801C163.399 24.9162 159.763 25.9701 159.246 23.7227C162.401 22.7386 165.632 23.3388 168.815 23.3248C173.533 23.3039 178.265 22.9549 182.97 23.5482C185.119 23.7297 187.241 24.0298 189.161 25.1186C190.089 27.3381 192.05 27.6033 194.088 27.7359L194.067 27.715C194.633 30.7651 196.908 32.3355 199.316 33.7942C199.714 35.7136 200.523 37.3468 202.457 38.1704C203.797 41.4997 204.634 44.9267 204.537 48.5491C204.927 49.3098 204.795 50.1334 204.795 50.9361C204.795 70.7023 204.795 90.4684 204.795 110.242C204.795 111.044 204.92 111.868 204.537 112.629C204.167 113.696 204.216 115.085 202.694 115.316C201.117 115.553 200.279 114.583 199.7 113.285C200.063 112.517 199.951 111.7 199.951 110.898C199.951 91.9691 199.958 73.0334 199.951 54.1048C199.951 53.2044 200.195 52.2482 199.581 51.4246C194.207 50.5592 188.784 51.32 183.395 51.0477C178.594 50.8035 173.757 51.6271 168.983 50.608C168.452 49.2889 168.452 47.9698 168.983 46.6576C170.113 45.2966 171.705 45.6107 173.156 45.5967C180.059 45.5548 186.962 45.5967 193.858 45.5688C195.107 45.5688 196.391 45.7921 197.578 45.2128C198.995 43.796 198.018 42.3233 197.487 41.032C194.626 34.0874 189.789 29.5925 181.958 28.9643C177.156 28.4897 172.354 28.9015 167.559 28.741C166.114 28.6921 164.537 29.0341 163.413 27.6801H163.42Z" fill="#191832"/>
<path d="M167.669 109.057C164.395 107.864 161.199 106.489 157.541 106.894C156.494 107.012 155.294 106.44 155.071 105.023C155.064 104.549 155.231 104.123 155.461 103.718C156.055 102.832 156.32 101.708 157.36 101.15C160.431 100.138 159.23 97.6039 159.056 95.6985C158.895 93.9676 158.456 92.3413 159.433 90.736C159.865 90.1078 160.466 89.8356 161.22 89.8566C161.945 89.9194 162.657 90.0869 163.383 90.1986C165.414 90.6313 166.154 92.118 166.35 93.9676C166.608 96.3685 166.922 98.7625 167.061 101.177C167.494 102.385 166.936 103.711 167.48 104.912L167.676 109.057H167.669Z" fill="#191832"/>
<path d="M191.277 110.403C191.41 112.958 188.66 112.043 187.746 113.335C184.423 112.364 182.546 109.796 180.794 107.081C180.48 104.017 179 103.228 176.348 104.987C175.022 105.866 174.198 106.543 173.863 104.352C174.659 103.263 176.571 103.291 176.697 101.532C177.479 99.4592 176.578 97.2536 177.213 95.1737C177.346 93.8685 177.939 93.0868 179.384 93.0938C180.78 93.0938 181.527 93.6871 181.548 95.1109C182.336 97.1699 181.394 99.3754 182.092 101.448C182.141 103.277 183.942 103.654 184.961 104.38C187.39 106.111 189.33 108.239 191.277 110.417V110.403Z" fill="#191832"/>
<path d="M167.476 104.909C166.492 103.883 167.043 102.605 166.89 101.44C166.031 95.0675 165.696 88.6672 165.752 82.239C165.822 74.5335 165.752 66.8281 165.78 59.1226C165.787 57.4126 165.619 55.6398 166.883 54.195C166.987 53.2388 166.562 52.15 167.574 51.4102C167.539 69.243 167.504 87.0758 167.462 104.909H167.476Z" fill="#251F3A"/>
<path d="M182.97 23.5548C175.062 23.6107 167.154 23.6665 159.239 23.7293C158.548 23.4641 157.529 23.9527 157.215 22.8359C164.725 22.8639 172.235 22.8708 179.738 22.9546C180.813 22.9685 182.069 22.4311 182.963 23.5548H182.97Z" fill="#191832"/>
<path d="M198.903 34.0451C199.147 33.7869 199.391 33.5286 199.629 33.2773C201.353 34.4639 201.827 36.3693 202.455 38.191C199.056 38.7144 198.658 36.6555 198.896 34.0521L198.903 34.0451Z" fill="#191832"/>
<path d="M194.096 27.7423C190.208 29.1383 189.524 28.7753 189.168 25.125C191.108 25.4391 192.86 26.1021 194.096 27.7423Z" fill="#191832"/>
<path d="M196.909 140.987C195.464 136.618 195.904 132.221 196.692 127.816C196.762 132.207 196.832 136.597 196.909 140.987Z" fill="#191832"/>
<path d="M200.501 34C198.5 35 192.001 29.5 193.5 27C195 28 199.001 31.5 200.501 34Z" fill="#191832"/>
<path d="M182.089 101.443C180.924 99.4189 181.747 97.2203 181.545 95.1055C182.878 97.1156 181.971 99.3211 182.089 101.443Z" fill="#2D2742"/>
<path d="M69.599 193.851C70.9949 194.088 72.2373 193.418 73.5495 193.153C74.3312 193.446 74.8407 194.291 75.7969 194.242C82.9859 194.123 90.1818 194.654 97.3498 193.942C97.8384 193.663 98.2851 193.314 98.8295 193.153C100.7 192.706 100.072 191.178 100.079 190.04C100.128 181.455 100.065 172.87 100.121 164.286C100.142 160.824 101.67 159.344 104.288 159.798C105.551 160.014 105.663 160.803 105.669 161.773C104.888 163.734 104.567 165.758 104.63 167.873C104.881 176.311 104.19 184.764 105.02 193.174C105.795 194.556 107.149 194.27 108.364 194.27C111.881 194.277 115.406 194.319 118.917 194.242C119.81 194.277 120.285 193.502 120.983 193.153C122.365 193.635 123.747 193.642 125.136 193.153C125.519 193.335 125.806 193.642 126.092 193.942C126.818 194.619 128.018 194.368 128.632 195.254C128.632 196.664 128.793 198.102 127.934 199.372C126.887 200.223 125.533 199.358 124.445 199.979C123.286 199.979 122.134 199.979 120.976 199.986C114.945 199.581 108.908 199.595 102.878 199.972C101.719 199.972 100.567 199.972 99.4088 199.972C90.3633 199.595 81.3108 199.574 72.2652 199.986C71.5742 199.986 70.8833 199.986 70.1853 199.986C69.4175 199.623 68.6009 199.742 67.7983 199.742C46.6571 199.742 25.5229 199.742 4.38177 199.742C3.57912 199.742 2.7625 199.63 1.98777 199.979C0.843118 199.84 0.612792 199.002 0.515077 198.06C-0.050269 193.23 0.263812 188.386 0.291731 183.549C0.368506 169.82 -0.0642282 156.098 0.508098 142.37C1.33867 140.548 2.99283 141.05 4.40969 141.044C25.837 141.009 47.2643 140.995 68.6847 140.974C69.2779 140.722 68.9569 139.878 69.5641 139.641C72.3769 140.373 72.2861 142.642 72.2303 144.812C72.1884 146.488 71.8185 148.058 69.585 147.981C68.7824 147.576 68.0495 146.99 67.0724 147.011C48.1089 146.955 29.1523 147.011 10.1958 147.004C9.03715 147.004 7.87854 146.983 6.81764 147.542C5.59622 148.442 5.75675 149.768 5.75675 151.031C5.75675 164.104 5.75675 177.184 5.75675 190.257C5.75675 191.52 5.58924 192.839 6.77576 193.753C7.61332 194.277 8.54858 194.256 9.47686 194.256C28.7056 194.228 47.9414 194.34 67.1701 194.193C67.5679 194.088 67.9728 193.998 68.3706 193.9C68.7754 193.83 69.1872 193.816 69.599 193.851Z" fill="#191832"/>
<path d="M36.0914 46.6572C36.6219 47.9763 36.6219 49.2954 36.0914 50.6076C33.0623 51.5638 29.9564 50.9636 26.8923 51.0194C19.8709 51.152 12.8424 50.9985 5.81399 51.0962C4.48787 52.0524 5.15791 53.4413 5.15093 54.5999C5.10208 72.691 5.12302 90.7891 5.10208 108.88C5.10208 110.13 5.37428 111.414 4.82987 112.635C4.92061 114.401 4.33432 115.671 2.31722 115.287C0.998081 115.036 0 115.5 0.286163 112.463C0.286163 108.679 0.293143 106.842 0.286163 103.967C0.251265 86.2872 0.272204 68.608 0.258245 50.9287C0.258245 49.6723 0.50951 48.3881 0 47.1597C0.816611 42.3298 1.46571 37.486 4.73914 33.4588C6.97958 30.7018 9.26889 28.0705 12.4027 26.3047C12.7866 27.896 13.3659 29.4525 13.1286 31.1415C12.9541 32.349 12.1305 32.8725 11.0417 33.1098C8.94085 32.8515 7.46118 33.5425 6.93771 35.7481C6.63061 37.0323 5.53481 37.814 4.87175 38.8679C3.55959 40.9688 3.27343 42.9301 5.86983 44.3399C6.29559 44.675 6.7353 44.989 7.22387 45.2403C15.3272 46.0011 23.4374 45.338 31.5338 45.5823C33.1042 45.6312 34.8281 45.1914 36.0914 46.6432V46.6572Z" fill="#191832"/>
<path d="M38.2289 54.1953C39.569 54.1953 40.9021 54.1953 42.2422 54.1953C42.9262 54.8584 42.6819 55.7099 42.6819 56.4916C42.6958 74.6315 42.6958 92.7715 42.6888 110.904C42.6888 111.484 42.6888 112.063 42.4515 112.607C40.7904 116.111 39.8761 116.237 37.5938 113.257C38.0474 112.021 37.8241 110.744 37.8241 109.481C37.838 92.2899 37.8241 75.0992 37.852 57.9085C37.852 56.6731 37.4821 55.3679 38.2149 54.1953H38.2289Z" fill="#191832"/>
<path d="M72.851 120.893C70.464 120.523 71.4969 117.494 69.6055 116.741C70.5547 113.39 73.4024 111.296 75.1403 108.47C75.922 107.144 74.7913 105.496 75.8662 104.219C77.1295 103.549 78.323 102.677 79.8794 102.83C80.3261 102.921 80.7239 102.788 81.1078 102.572C81.8686 102.048 82.5386 101.441 82.9225 100.583C83.5786 98.4331 82.9644 96.2485 83.1179 94.0848C85.5678 91.6419 86.5379 91.8094 88.7505 95.041C89.5461 97.0651 88.8063 99.2706 89.5182 101.302C91.6749 104.303 95.0321 106.097 97.2865 109.007C98.1938 111.317 100.762 109.901 102.137 111.171C103.638 113.237 103.484 115.31 102.2 117.404C101.621 119.525 100.497 118.995 99.6526 117.739C98.7103 116.343 97.9147 114.793 97.3493 113.202C96.7142 111.408 95.074 111.401 93.7758 111.059C92.9173 110.829 93.2802 112.057 93.1197 112.643C90.6698 112.678 89.7695 110.459 88.2549 109.196C86.4472 107.688 84.9466 107.562 83.09 109.091C79.9422 111.673 77.3388 114.682 75.245 118.157C74.6168 119.204 74.3306 120.572 72.858 120.9L72.851 120.893Z" fill="#191832"/>
<path d="M195.414 199.995C196.28 199.157 197.375 199.422 198.387 199.415C219.138 199.402 239.888 199.402 260.638 199.415C261.65 199.415 262.746 199.122 263.605 199.981C240.872 199.981 218.14 199.981 195.414 199.981V199.995Z" fill="#3E3751"/>
<path d="M1.99526 199.987C2.9724 199.059 4.19383 199.421 5.31056 199.421C25.8305 199.401 46.3505 199.401 66.8705 199.421C67.9872 199.421 69.2087 199.065 70.1858 199.994C47.4533 199.994 24.7208 199.994 1.98828 199.994L1.99526 199.987Z" fill="#3E3751"/>
<path d="M4.50046 113.5C4.4865 93.8315 4.79646 73.2991 4.80344 53.6306C4.80344 52.6534 4.39164 51.5018 5.54327 50.7969C5.74568 50.9574 5.8085 51.111 5.7387 51.2645C5.66891 51.4181 5.59911 51.4948 5.53629 51.4948C5.52233 70.6957 5.51535 89.9035 5.45254 109.104C5.45254 109.104 6.00046 113 4.50046 114.5V113.5Z" fill="#191832"/>
<path d="M38.2273 54.1958C38.2133 72.5522 38.2063 90.9085 38.1575 109.265C38.1575 110.598 38.6391 112.05 37.5991 113.257C37.5572 92.6464 37.5154 72.0287 37.4805 51.418C38.5553 52.1229 38.0388 53.2536 38.2273 54.1958Z" fill="#433B56"/>
<path d="M43.1254 51.4876L42.7834 51.4457L42.4414 51.4806C42.7415 50.6082 43.5023 50.7338 44.1654 50.7268C53.853 50.7129 63.5477 50.7198 73.2353 50.7268C73.9124 50.7268 74.6452 50.65 75.064 51.3829C64.4131 51.4178 53.7693 51.4527 43.1184 51.4876H43.1254Z" fill="#191832"/>
<path d="M72.2656 199.992C72.7891 199.796 73.3195 199.44 73.843 199.44C81.8346 199.405 89.8332 199.405 97.8249 199.44C98.3553 199.44 98.8788 199.789 99.4092 199.978C90.3637 199.978 81.3112 199.985 72.2656 199.992Z" fill="#3E3751"/>
<path d="M167.586 199.988C172.004 198.717 176.52 199.506 180.987 199.478C184.867 199.45 188.811 198.745 192.643 199.988C184.288 199.988 175.941 199.988 167.586 199.988Z" fill="#3D3751"/>
<path d="M68.2188 120.894C69.9287 120.832 71.3875 121.55 71.4084 123.267C71.4294 125.061 70.5011 126.611 68.2188 126.45C68.2188 124.601 68.2188 122.744 68.2188 120.894Z" fill="#191832"/>
<path d="M124.445 199.98C125.471 198.996 126.77 199.583 127.935 199.373C131.711 199.387 135.494 199.373 139.27 199.429C140.38 199.443 141.58 199.073 142.543 199.994C136.513 199.994 130.476 199.994 124.445 199.987V199.98Z" fill="#3D3751"/>
<path d="M102.879 199.978C108.909 199.043 114.947 199.029 120.977 199.992C114.947 199.992 108.909 199.985 102.879 199.978Z" fill="#3E3751"/>
<path d="M146.02 199.987C151.82 199.058 157.62 199.044 163.427 199.987C157.627 199.987 151.827 199.987 146.02 199.987Z" fill="#3D3751"/>
<path d="M69.5786 139.654C69.4391 140.199 69.467 140.855 68.6992 140.987C68.769 136.827 68.8318 132.668 68.9016 128.508C70.2696 132.151 69.0412 135.955 69.5786 139.654Z" fill="#191832"/>
<path d="M80.6859 17.3846C84.5875 16.2399 88.517 15.179 92.3837 13.9227C95.2802 12.9805 98.2605 12.115 100.459 9.75591C101.373 8.77877 102.595 8.63917 103.572 9.44881C108.96 13.9227 115.577 15.1721 122.103 16.7006C122.871 16.8821 123.61 17.1752 124.364 17.4195C125.306 21.4886 124.755 25.6205 124.748 29.7105C124.734 35.0848 125.251 40.48 124.455 45.8404V45.8264C120.763 46.3429 117.07 46.5034 113.385 45.7706L113.315 45.8473C112.38 41.2269 113.609 36.5087 112.652 31.8882C111.871 25.1808 107.508 23.052 102.469 22.3192C97.9045 21.6561 93.9471 25.2715 91.8881 31.26C92.1603 36.1248 92.3558 40.9896 91.7765 45.8543L91.7346 45.8124C88.0354 46.4127 84.3432 46.4127 80.644 45.8124L80.6022 45.8543C80.1275 36.3621 79.9879 26.8699 80.6789 17.3776L80.6859 17.3846Z" fill="#BE6427"/>
<path d="M42.4375 45.7787C43.3239 34.4368 50.1848 23.1369 61.5127 19.7657C65.7633 18.5024 70.4326 17.986 75.0182 18.1744C75.8767 22.0132 75.3672 25.9078 75.3462 29.7675C75.3183 35.1208 75.8558 40.4951 75.0391 45.8415L75.088 45.9113C64.1998 46.3021 53.3187 46.5604 42.4375 45.7856V45.7787Z" fill="#FCC000"/>
<path d="M130.1 18.1538C132.431 17.7629 134.616 19.438 136.982 18.6494C138.378 17.742 139.467 18.426 140.5 19.3473L140.416 19.5776C142.384 21.3574 144.715 22.6277 146.879 24.1353C148.561 25.3079 150.453 25.7057 152.449 24.7984C153.74 25.0566 153.782 26.1454 154.005 27.1086C154.661 29.7329 154.899 32.5527 157.53 34.2208C158.018 34.5279 158.346 35.1142 158.263 35.6935C157.872 38.3457 159.903 39.1693 161.62 40.2442C162.276 41.3539 162.834 42.4777 162.136 43.7759C162.074 44.4459 162.004 45.109 161.941 45.779C160.908 46.5468 159.714 46.1838 158.598 46.1768C149.064 46.0652 139.523 46.5049 129.988 45.9674C129.542 36.6986 129.339 27.4227 130.093 18.1538H130.1Z" fill="#FCC000"/>
<path d="M182.95 28.3992C191.004 28.3643 196.735 35.4276 198.815 42.1699C199.157 43.2796 200.064 44.4382 199.513 45.7783C196.134 46.6578 192.687 46.1901 189.28 46.1413C181.847 46.0296 174.4 46.7276 166.988 45.7783C166.834 43.9287 167.085 42.0094 166.087 40.2924C164.754 37.8914 163.721 35.3927 163.498 32.6148C163.365 30.9746 162.137 29.8928 161.418 28.5527C168.586 27.778 175.768 28.0781 182.95 28.3922V28.3992Z" fill="#F39100"/>
<path d="M5.57012 45.7856C5.50731 45.3459 5.43751 44.9062 5.37469 44.4735C4.6558 40.7185 7.46159 34.9673 11.1259 32.6989C11.7959 32.1824 12.466 31.6729 13.136 31.1564C15.6068 29.3487 18.4544 28.6717 21.4417 28.4134C28.6446 28.0505 35.8406 27.8621 43.0365 28.5112C40.0772 33.9203 37.8437 39.5668 37.404 45.7926C31.1363 46.7139 24.8408 46.1067 18.5591 46.1416C14.2388 46.1695 9.87653 46.7279 5.5771 45.7856H5.57012Z" fill="#F39100"/>
<path d="M117.468 72.1811C119.311 69.7383 121.761 68.0353 124.434 66.6254C126.039 68.482 128.182 68.0353 129.082 65.5296C129.417 64.5943 129.285 63.4846 129.362 62.4516C129.578 62.2632 129.759 62.0538 129.913 61.8165C130.115 61.286 130.241 60.7067 130.827 60.4415C132.209 60.3298 133.165 62.6191 134.785 61.1394C135.427 61.3488 135.825 61.8653 136.299 62.2911C144.444 67.6723 151.829 73.8842 157.692 81.7641C159.353 83.9976 160.825 86.3357 161.733 88.988C161.782 89.5184 161.691 89.993 161.216 90.3281C160.679 90.349 160.197 90.4886 159.939 91.019C159.046 91.8566 158.815 93.6085 156.987 93.1688C153.706 86.9779 149.658 81.3872 144.221 76.8784C142.141 74.5193 139.677 72.5999 137.116 70.8062C132.677 67.6933 132.593 67.6933 127.938 70.6666C127.002 71.197 126.228 71.9438 125.376 72.586C124.601 73.0745 123.862 73.605 123.226 74.275C121.684 75.1893 121.119 77.7857 118.571 76.9552C118.048 75.3987 117.168 73.926 117.454 72.1811H117.468Z" fill="#191832"/>
<path d="M96.757 32.6362C97.6364 29.1674 100.023 26.92 102.522 27.1991C105.195 27.4993 107.575 30.2562 107.778 33.2853C108.357 37.4661 108.148 41.6608 107.889 45.8486C104.407 46.5466 100.903 46.1487 97.3991 46.058C96.3243 41.6259 97.5108 37.0822 96.75 32.6362H96.757Z" fill="#FCC000"/>
<path d="M166.898 54.1953C166.898 69.9413 166.898 85.6942 166.898 101.44C165.99 99.1508 165.634 96.7568 165.502 94.314C165.404 92.4783 164.992 90.9009 162.647 90.9917C161.712 89.3096 161.761 87.453 161.754 85.6174C161.733 76.6486 161.719 67.6799 161.768 58.7111C161.775 57.1547 161.766 51 162.646 51C164 51 165.543 54.1953 166.898 54.1953Z" fill="#191832"/>
<path d="M80.6767 51.501C80.6557 68.1264 80.6348 84.7587 80.6488 101.384C80.6488 102.068 80.1253 103.045 81.2769 103.429C80.1392 104.79 80.1113 103.569 79.881 102.829C79.895 86.7688 79.895 70.7158 79.9578 54.6558C79.9578 53.3645 79.3087 51.8569 80.6837 50.7891C80.8791 50.9496 80.9489 51.1101 80.8791 51.2637C80.8093 51.4172 80.7395 51.494 80.6767 51.494V51.501Z" fill="#191832"/>
<path d="M152.315 24.9448C152.022 25.6078 151.582 26.1453 150.856 26.3058C148.518 26.8083 140.127 22.0203 139.422 19.5705C139.5 18.5 144.17 20.3243 146.047 20.7151C148.358 20.5825 149.74 21.9366 150.87 23.7024C151.08 24.4353 151.743 24.2747 152.252 24.4073C152.413 24.512 152.483 24.6237 152.448 24.7493C152.413 24.8819 152.371 24.9448 152.322 24.9448H152.315Z" fill="#FCC000"/>
<path d="M161.216 40.2994C158.564 40.09 156.784 39.1199 157.538 36.014C157.706 35.323 157.426 34.9321 156.882 34.646C153.727 32.9639 153.539 30.0604 153.713 27.0033C153.999 26.766 154.209 26.8358 154.348 27.1708C155.507 28.5598 156.666 29.9557 157.817 31.3446C158.983 32.1822 159.667 33.2361 159.36 34.7437C159.765 35.4486 160.169 36.1466 160.567 36.8515C161.468 37.8705 162.326 38.9035 161.216 40.2994Z" fill="#FCC000"/>
<path d="M161.216 40.2995C160.999 39.1478 160.783 37.9962 160.566 36.8516C161.558 36.9772 162.549 37.1028 163.561 37.2285C163.519 35.6441 160.552 34.1714 163.491 32.6289C165.201 34.9043 165.808 37.5495 166.08 40.3064C164.175 40.795 164.566 43.88 162.137 43.7823C161.83 42.6237 161.516 41.4651 161.209 40.3064L161.216 40.2995Z" fill="#191832"/>
<path d="M166.987 45.7852C177.827 45.7852 188.673 45.7852 199.512 45.7852C198.619 47.209 197.202 46.5041 196.05 46.518C187.033 46.6157 178.008 46.6227 168.984 46.6646C168.307 46.3924 167.288 46.9019 166.98 45.7921L166.987 45.7852Z" fill="#F39100"/>
<path d="M42.4367 45.7773C53.3178 45.8192 64.206 45.8611 75.0872 45.903C74.6475 46.6219 73.9216 46.5451 73.2376 46.5451C63.5429 46.5451 53.8413 46.5521 44.1467 46.5451C43.4836 46.5451 42.7228 46.6568 42.4297 45.7843L42.4367 45.7773Z" fill="#191832"/>
<path d="M130.043 45.7843C140.68 45.7843 151.31 45.7843 161.947 45.7773C161.556 46.8243 160.628 46.5381 159.881 46.5381C149.928 46.5242 139.968 46.4823 130.015 46.4474C129.827 46.2938 129.764 46.1403 129.841 46.0007C129.91 45.8611 129.98 45.7913 130.05 45.7913L130.043 45.7843Z" fill="#8E6B28"/>
<path d="M130.045 45.7876C130.038 46.004 130.024 46.2273 130.01 46.4437C129.012 45.99 129.347 45.0757 129.34 44.3358C129.319 36.4001 129.312 28.4712 129.34 20.5355C129.34 19.7119 128.893 18.644 130.086 18.1484C130.066 27.3615 130.052 36.5745 130.031 45.7806L130.045 45.7876Z" fill="#191832"/>
<path d="M80.6829 17.3867C80.655 26.879 80.6341 36.3712 80.6061 45.8634C80.4177 45.5842 80.0547 45.3051 80.0547 45.0259C80.0338 36.0711 80.0408 27.1232 80.0757 18.1684C80.0757 17.9032 80.4735 17.645 80.6829 17.3867Z" fill="#432932"/>
<path d="M124.447 45.8497C124.419 36.3715 124.391 26.9002 124.363 17.4219C125.124 17.7848 125.145 18.4828 125.145 19.1807C125.145 27.4585 125.145 35.7363 125.145 44.0211C125.145 44.719 125.124 45.41 124.447 45.8497Z" fill="#191832"/>
<path d="M75.0366 45.835C75.0296 36.615 75.0226 27.395 75.0156 18.168C75.9997 18.4053 75.7345 19.2149 75.7345 19.8361C75.7555 27.9254 75.7485 36.0078 75.7345 44.0971C75.7345 44.7392 75.9299 45.521 75.0366 45.835Z" fill="#191832"/>
<path d="M182.95 28.3994C175.775 28.4553 168.6 28.5041 161.418 28.5599C161.725 27.4432 162.744 27.9527 163.414 27.6875C168.837 27.7224 174.253 27.7364 179.677 27.8131C180.779 27.8271 182.008 27.4013 182.943 28.4064L182.95 28.3994Z" fill="#F39100"/>
<path d="M150.862 23.7017C149.257 22.7036 147.644 21.7055 146.039 20.7144C147.247 18.9207 149.047 19.1021 150.562 19.814C152.551 20.7493 150.834 22.3825 150.862 23.7017Z" fill="#191832"/>
<path d="M159.359 34.7387C158.773 33.6359 157.893 32.6727 157.816 31.3396C159.024 29.9018 160.35 30.7603 160.894 31.7096C161.683 33.0566 160.95 34.2711 159.352 34.7387H159.359Z" fill="#191832"/>
<path d="M109.88 51.3218C104.98 51.3218 100.087 51.3149 95.1875 51.3079C100.087 50.3517 104.98 50.3447 109.88 51.3218Z" fill="#191832"/>
<path d="M124.563 66.041C124.521 61.1693 124.479 56.2975 124.438 51.4258C125.673 56.2906 125.45 61.1623 124.563 66.041Z" fill="#191832"/>
<path d="M91.7734 45.8638C91.8083 40.9991 91.8502 36.1343 91.8851 31.2695C92.7436 36.1413 92.939 41.0061 91.7734 45.8638Z" fill="#442932"/>
<path d="M112.652 31.8984C114.173 36.491 112.924 41.2162 113.315 45.8576C111.772 41.265 113.029 36.5468 112.652 31.8984Z" fill="#221B32"/>
<path d="M124.439 51.4391C120.028 51.3972 115.61 51.3553 111.199 51.3135C115.624 50.441 120.035 50.1549 124.439 51.4391Z" fill="#191832"/>
<path d="M96.7567 32.6367C98.027 35.7008 97.008 38.9044 97.3011 42.0243C97.4198 43.2666 97.357 44.5299 97.3779 45.7793C97.1685 46.1073 96.9452 46.1283 96.7148 45.8002C96.7288 41.4101 96.7428 37.0199 96.7567 32.6367Z" fill="#C49214"/>
<path d="M80.6789 51.5007C80.6789 51.2634 80.6789 51.0261 80.6858 50.7888C84.8526 50.9772 89.0613 50.0559 93.1793 51.3052C89.0125 51.3681 84.8387 51.4309 80.6719 51.4937L80.6789 51.5007Z" fill="#191832"/>
<path d="M107.742 45.7367C107.756 41.5839 107.77 37.438 107.784 33.2852C109.194 37.3892 108.175 41.6118 108.363 45.7716C108.14 46.1136 107.931 46.0997 107.742 45.7367Z" fill="#F0B200"/>
<path d="M140.495 19.2697L136.981 18.6438C136.876 17.2688 137.442 16.2777 138.879 16.4103C140.624 16.5778 140.465 17.7437 140.5 19L140.495 19.2697Z" fill="#191832"/>
<path d="M154.348 27.1658C154.138 27.1099 153.709 26.5558 153.5 26.5C153 26 153 26 152.5 25.5C152 25 150.514 23.684 150.5 23.5026C151.01 22.5394 153.287 22.657 154.571 23.5085C156.658 24.8904 154.341 25.9443 154.355 27.1658H154.348Z" fill="#191832"/>
<path d="M130 62.4325L129.679 62.4884L129.351 62.4604C129.672 58.8171 128.563 55.097 130 51.5234C130.587 55.1598 130.587 58.8031 130 62.4395V62.4325Z" fill="#191832"/>
<path d="M162.638 51.5029C162.442 51.2097 162.247 50.9236 162.059 50.6304C162.945 49.737 163.72 49.9255 164.187 51.0003C164.767 52.3265 164.243 53.178 162.84 53.499C162.771 52.829 162.708 52.1659 162.638 51.4959V51.5029Z" fill="#191832"/>
<path d="M196.901 145.986C217.951 145.986 238.994 145.972 260.045 145.965C260.603 146.53 260.464 147.249 260.464 147.926C260.464 162.918 260.464 177.903 260.464 192.896C260.464 193.475 260.464 194.047 260.212 194.592C259.459 195.024 258.635 194.878 257.832 194.878C238.171 194.885 218.509 194.878 198.848 194.878C198.157 194.878 197.459 194.948 196.796 194.661C196.14 192.63 196.496 190.543 196.489 188.491C196.447 175.558 196.454 162.625 196.489 149.685C196.489 148.457 196.084 147.144 196.887 145.986H196.901Z" fill="#E4D9E9"/>
<path d="M102.775 127.859C104.402 124.39 102.845 120.921 102.775 117.459C102.399 114.912 102.468 112.357 102.734 109.81C104.178 109.189 105.644 109.363 107.117 109.698C107.542 109.698 107.975 109.698 108.401 109.705C116.092 109.279 123.784 109.3 131.469 109.691H133.437C141.128 109.293 148.82 109.272 156.504 109.705H157.796C159.429 109.398 161.055 109.126 162.66 109.845L162.744 109.775C163.302 112.553 163.156 115.345 162.821 118.13C161.264 121.605 160.887 125.081 162.835 128.557C163.079 132.717 163.442 136.877 162.632 141.023C153.643 141.002 144.646 140.981 135.656 140.96C134.777 137.61 135.482 134.19 135.244 130.811C135.161 129.569 135.489 128.306 134.979 127.091C133.611 124.509 132.341 124.327 130.107 126.393C130.415 131.251 130.701 136.109 129.94 140.96C120.95 140.981 111.954 140.995 102.964 141.016C102.147 136.639 102.524 132.249 102.761 127.852L102.775 127.859Z" fill="#E4D9E9"/>
<path d="M97.2684 140.944C94.351 141.684 91.0008 139.737 88.3904 142.375C88.7603 148.434 88.7673 154.492 88.3904 160.543C88.6975 161.862 89.6886 161.918 90.7844 161.89C92.285 161.848 93.8066 162.044 95.2793 161.848C98.1479 161.471 99.4042 162.4 98.6015 165.373C98.2107 168.842 98.2107 172.304 98.6015 175.773C98.6015 176.708 98.6015 177.643 98.6015 178.578C98.2107 179.96 98.2107 181.342 98.6015 182.724C98.6015 183.429 98.6015 184.127 98.6015 184.832C97.7221 188.112 99.1948 191.581 97.7849 194.813C89.9538 194.792 82.1297 195.176 74.3056 194.61C73.6984 190.018 74.1241 185.404 74.0474 180.798C73.845 168.458 74.3614 156.111 73.7752 143.771C73.6635 143.569 73.6635 143.366 73.7752 143.171C74.3335 140.47 73.8519 137.734 74.0474 135.019C74.1241 133.93 73.6286 132.729 74.5429 131.759C82.1507 131.731 89.7514 131.361 97.3522 131.962L97.2824 132.059C97.8966 135.019 97.9106 137.978 97.2754 140.937L97.2684 140.944Z" fill="#EDE6F1"/>
<path d="M191.33 142.504C191.33 143.153 191.33 143.809 191.33 144.458C191.93 154.02 191.539 163.596 191.553 173.165C191.56 180.305 191.965 187.452 191.295 194.586L191.246 194.544C183.806 195.151 176.366 195.011 168.925 194.62C168.542 183.746 168.318 172.865 169.037 161.998C170.754 161.963 172.471 161.865 174.188 161.907C175.668 161.942 176.61 161.46 176.722 159.869C177.175 154.271 177.175 148.667 176.722 143.069C176.338 141.241 174.9 141.108 173.434 141.059C171.738 141.003 170.035 140.982 168.339 140.947C167.725 137.911 167.711 134.875 168.353 131.839C175.996 131.672 183.631 131.392 191.267 131.986L191.204 132.069C191.874 135.538 191.7 139.021 191.33 142.504Z" fill="#EDE6F1"/>
<path d="M171.697 156.938C145.768 156.938 119.838 156.938 93.9022 156.938C93.2461 153.295 93.2461 149.651 93.9022 146.008C119.831 146.008 145.761 146.008 171.697 146.008C172.36 149.651 172.353 153.294 171.697 156.945V156.938Z" fill="#FCC000"/>
<path d="M103.697 194.509C103.662 184.325 103.669 174.149 103.543 163.973C103.523 162.242 104.137 161.712 105.679 161.774C110.516 161.823 115.36 161.872 120.197 161.921C121.153 164.594 120.581 167.358 120.588 170.073C120.588 178.218 120.846 186.364 120.455 194.509C114.871 195.13 109.288 195.123 103.704 194.509H103.697Z" fill="#FCC000"/>
<path d="M147.442 162.005C152.733 161.984 158.03 161.97 163.321 161.949C163.642 162.312 163.76 162.731 163.747 163.213C163.579 173.668 164.095 184.13 163.481 194.579L163.356 194.509C158.009 195.172 152.656 195.025 147.31 194.579C147.009 183.719 146.744 172.858 147.442 162.005Z" fill="#FCC000"/>
<path d="M125.85 161.919C131.182 161.912 136.508 161.905 141.84 161.898C142.615 165.067 142.168 168.285 142.161 171.467C142.147 179.152 142.441 186.843 142.001 194.528C136.599 195.163 131.189 195.01 125.78 194.605C125.396 183.71 125.257 172.815 125.857 161.919H125.85Z" fill="#3B3248"/>
<path d="M72.8516 120.894C75.4968 115.408 79.1402 110.773 84.1585 107.214C85.1287 106.523 85.5404 106.32 86.713 107.046C89.1908 108.575 90.7751 111.025 93.1203 112.644C95.1653 115.171 97.2313 117.683 98.1316 120.901C99.5345 122.52 100.149 124.146 98.1316 125.766C98.0548 125.982 97.9781 126.205 97.9083 126.422C89.805 127.099 81.7017 126.924 73.5984 126.505C72.2583 124.781 73.375 122.729 72.8516 120.901V120.894Z" fill="#FCC000"/>
<path d="M180.786 107.082C183.103 109.169 185.42 111.249 187.737 113.336C187.856 115.213 189.643 116.037 190.431 117.538C191.981 120.483 192.609 123.358 191.332 126.513C183.389 126.981 175.453 126.981 167.51 126.513C166.031 122.954 166.868 119.61 168.844 116.609C171.307 112.861 174.546 109.811 178.154 107.103C179.285 106.258 179.899 106.377 180.786 107.089V107.082Z" fill="#FCC000"/>
<path d="M196.909 194.484C217.945 194.484 238.982 194.484 260.018 194.491C260.284 194.638 260.367 194.785 260.284 194.931C260.2 195.085 260.109 195.154 260.025 195.154C238.982 195.154 217.932 195.14 196.888 195.14C196.651 194.987 196.574 194.833 196.658 194.694C196.742 194.554 196.825 194.484 196.909 194.484Z" fill="#AFA7BB"/>
<path d="M73.7663 143.781C74.8482 144.842 74.3317 146.189 74.3317 147.39C74.3945 163.087 74.4015 178.784 74.4224 194.481C74.6248 194.641 74.6946 194.788 74.6108 194.928C74.5341 195.067 74.4573 195.137 74.3875 195.137C73.18 194.872 73.8989 193.79 73.543 193.162C73.5848 178.54 73.6197 163.924 73.6616 149.302C73.6616 147.459 73.7244 145.624 73.7593 143.781H73.7663Z" fill="#191832"/>
<path d="M191.289 194.584C191.303 177.875 191.31 161.166 191.324 144.457C192.168 145.015 191.931 145.888 191.931 146.663C191.945 161.913 191.945 177.17 191.931 192.421C191.931 193.175 192.217 194.075 191.289 194.584Z" fill="#191832"/>
<path d="M196.907 194.486C196.844 194.702 196.837 194.925 196.879 195.149C195.686 194.639 196.139 193.571 196.139 192.741C196.111 177.958 196.111 163.175 196.139 148.385C196.139 147.555 195.707 146.48 196.9 145.984C196.9 162.149 196.9 178.321 196.907 194.486Z" fill="#191832"/>
<path d="M260.023 195.164C260.078 194.941 260.078 194.717 260.016 194.494C260.023 178.315 260.03 162.144 260.044 145.965C261.132 146.516 260.818 147.542 260.818 148.408C260.839 163.177 260.832 177.938 260.818 192.707C260.818 193.587 261.083 194.599 260.023 195.157V195.164Z" fill="#504D68"/>
<path d="M69.6006 193.85C69.3494 194.094 69.0981 194.338 68.8468 194.582C67.6813 193.535 67.7092 192.098 67.7022 190.73C67.6533 177.001 67.6394 163.279 67.7022 149.55C67.7022 148.28 67.765 146.996 68.7142 145.977C69.831 146.284 69.3215 147.303 69.5937 147.987C69.5937 163.272 69.5937 178.557 69.5937 193.843L69.6006 193.85Z" fill="#67647E"/>
<path d="M103.512 104.134C103.345 103.694 103.177 103.254 103.01 102.815C103.987 100.839 105.732 101.314 107.365 101.433C108.475 101.684 108.998 102.57 109.536 103.443C109.892 103.952 110.352 104.399 110.541 105.02C108.259 107.847 105.167 107.847 102.891 105.02C102.87 104.566 103.338 104.448 103.519 104.134H103.512Z" fill="#191832"/>
<path d="M136.283 105.03C134.021 107.835 131.586 107.842 129.324 105.03C129.324 104.709 129.366 104.394 129.471 104.08C129.534 103.927 129.596 103.78 129.652 103.627C130.008 102.887 130.246 102.056 131.069 101.644C132.242 101.205 133.407 101.205 134.573 101.658C135.536 102.196 135.627 103.243 136.004 104.122C136.129 104.408 136.22 104.715 136.283 105.023V105.03Z" fill="#191832"/>
<path d="M141.833 194.534C141.833 183.653 141.833 172.772 141.833 161.891C142.601 162.449 142.545 163.273 142.545 164.075C142.545 173.735 142.545 183.388 142.545 193.047C142.545 193.85 142.608 194.674 141.84 195.232C141.603 195.079 141.526 194.925 141.603 194.771C141.68 194.618 141.756 194.534 141.833 194.534Z" fill="#1A1A37"/>
<path d="M169.038 161.988C169.038 172.814 169.038 183.646 169.038 194.471C169.254 194.625 169.324 194.771 169.24 194.918C169.163 195.058 169.08 195.12 169.003 195.12C167.844 194.771 168.319 193.787 168.319 193.096C168.284 183.395 168.284 173.693 168.319 163.984C168.319 163.286 167.858 162.302 169.045 161.988H169.038Z" fill="#191832"/>
<path d="M120.166 194.506C120.173 183.645 120.18 172.778 120.187 161.918C121.478 162.867 120.941 164.249 120.948 165.443C120.996 174.677 120.976 183.918 120.976 193.152C120.934 193.919 121.108 194.771 120.187 195.197C120.005 195.05 119.936 194.896 119.991 194.743C120.047 194.589 120.103 194.506 120.159 194.506H120.166Z" fill="#282232"/>
<path d="M147.442 162.004C147.435 172.843 147.428 183.683 147.421 194.522C147.665 194.661 147.742 194.801 147.658 194.934C147.574 195.066 147.491 195.129 147.407 195.129C146.437 194.864 146.737 194.047 146.73 193.433C146.709 183.508 146.709 173.59 146.73 163.665C146.73 163.051 146.444 162.227 147.442 162.004Z" fill="#D39D03"/>
<path d="M163.485 194.579C163.429 183.705 163.38 172.823 163.324 161.949C164.266 162.389 164.106 163.268 164.106 164.043C164.113 173.598 164.106 183.146 164.106 192.701C164.106 193.392 164.106 194.09 163.485 194.579Z" fill="#191832"/>
<path d="M125.849 161.918C125.849 172.792 125.849 183.666 125.849 194.541C125.619 194.792 125.395 194.792 125.172 194.541C125.158 194.08 125.144 193.619 125.137 193.159C125.144 183.939 125.137 174.719 125.179 165.498C125.179 164.291 124.683 162.937 125.849 161.925V161.918Z" fill="#3B3248"/>
<path d="M73.6016 126.498C81.7049 126.47 89.8082 126.442 97.9115 126.414C97.8696 126.526 97.8417 126.721 97.7928 126.728C89.7244 127.266 81.656 127.733 73.6016 126.498Z" fill="#191832"/>
<path d="M191.267 131.986C183.631 132.035 175.988 132.076 168.353 132.125C168.122 132.363 167.899 132.363 167.676 132.111C168.032 131.867 168.395 131.399 168.751 131.399C175.981 131.372 183.205 131.392 190.436 131.434C190.715 131.434 190.988 131.79 191.26 131.979L191.267 131.986Z" fill="#474761"/>
<path d="M167.511 126.512C175.454 126.512 183.389 126.512 191.332 126.512C190.446 127.663 189.189 127.112 188.108 127.119C182.315 127.182 176.522 127.182 170.728 127.119C169.654 127.105 168.397 127.663 167.504 126.512H167.511Z" fill="#CB970D"/>
<path d="M97.3432 131.969C89.7076 132.01 82.0719 132.052 74.4362 132.094C74.2059 132.352 73.9686 132.352 73.7383 132.094C74.0942 131.319 74.8062 131.333 75.4971 131.326C82.2743 131.326 89.0515 131.312 95.8287 131.354C96.3382 131.354 96.8407 131.752 97.3432 131.969Z" fill="#191832"/>
<path d="M156.509 109.699C148.817 109.699 141.133 109.692 133.441 109.685C137.692 108.373 142.054 109.197 146.354 109.155C149.732 109.12 153.194 108.373 156.516 109.699H156.509Z" fill="#191832"/>
<path d="M131.474 109.684C123.782 109.684 116.091 109.691 108.406 109.698C109.111 108.847 110.095 109.105 110.975 109.098C117.075 109.07 123.175 109.077 129.268 109.098C130.036 109.098 130.908 108.875 131.474 109.691V109.684Z" fill="#191832"/>
<path d="M169.003 195.13C168.996 194.913 169.003 194.697 169.03 194.48C176.436 194.501 183.841 194.522 191.246 194.543C190.946 195.465 190.151 195.234 189.516 195.227C182.676 195.206 175.843 195.164 169.003 195.123V195.13Z" fill="#B5B1C1"/>
<path d="M130.017 104.214C129.787 104.486 129.556 104.751 129.326 105.024C123.065 105.024 116.798 105.024 110.537 105.024C110.048 104.786 109.567 104.549 109.078 104.305C109.685 103.502 110.579 103.362 111.493 103.265C116.497 102.979 121.509 103.153 126.52 103.167C127.762 103.167 129.054 103.195 130.01 104.214H130.017Z" fill="#191832"/>
<path d="M98.1328 125.76C99.3193 124.141 98.3282 122.515 98.1328 120.895C99.9894 120.805 101.588 121.014 101.49 123.499C101.399 125.83 99.78 125.788 98.1328 125.76Z" fill="#191832"/>
<path d="M136.284 105.029C136.054 104.959 135.816 104.883 135.586 104.813C135.44 104.331 135.586 103.975 136.033 103.745C142.273 102.719 148.533 103.068 154.794 103.529C155.22 103.689 155.562 103.954 155.827 104.317C155.576 104.555 155.324 104.792 155.066 105.036C148.805 105.036 142.538 105.036 136.277 105.036L136.284 105.029Z" fill="#191832"/>
<path d="M88.3828 160.551C88.3828 154.492 88.3828 148.434 88.3828 142.383C89.353 148.441 89.36 154.499 88.3828 160.551Z" fill="#191832"/>
<path d="M125.17 194.535C125.394 194.535 125.624 194.535 125.847 194.535C131.173 194.535 136.505 194.535 141.83 194.535C141.83 194.765 141.83 195.003 141.83 195.233C137.426 195.233 133.022 195.247 128.618 195.254C127.46 195.045 126.112 195.736 125.156 194.535H125.17Z" fill="#322A43"/>
<path d="M176.715 143.066C177.992 145.314 177.308 147.757 177.266 150.088C177.21 153.347 178.006 156.677 176.715 159.873C176.715 154.276 176.715 148.671 176.715 143.073V143.066Z" fill="#191832"/>
<path d="M147.41 195.121C147.41 194.919 147.417 194.716 147.424 194.514C152.736 194.514 158.054 194.507 163.365 194.5C161.579 196.112 159.443 195.079 157.489 195.177C154.138 195.338 150.774 195.156 147.41 195.114V195.121Z" fill="#CB970D"/>
<path d="M129.945 140.961C130.001 136.103 130.057 131.252 130.113 126.395C131.013 131.259 131.285 136.117 129.945 140.961Z" fill="#79748C"/>
<path d="M134.987 127.09C136.32 131.654 135.189 136.345 135.664 140.951C134.038 138.857 135.113 136.456 134.945 134.209C134.764 131.85 134.959 129.463 134.987 127.09Z" fill="#7D7990"/>
<path d="M102.773 127.859C102.843 132.25 102.906 136.633 102.976 141.023C101.552 136.654 101.964 132.263 102.773 127.859Z" fill="#1B1D3A"/>
<path d="M162.637 141.016C162.707 136.863 162.769 132.704 162.839 128.551C163.691 132.725 164.012 136.884 162.637 141.016Z" fill="#1B1A37"/>
<path d="M171.699 156.937C171.699 153.294 171.699 149.65 171.699 146C172.963 149.643 172.963 153.287 171.699 156.937Z" fill="#191832"/>
<path d="M73.7383 132.089C73.9686 132.089 74.1989 132.089 74.4362 132.089C73.9337 135.767 75.1482 139.543 73.7732 143.166C73.7662 139.473 73.7522 135.774 73.7453 132.082L73.7383 132.089Z" fill="#191832"/>
<path d="M93.911 146.008C93.911 149.651 93.911 153.295 93.911 156.938C92.6547 153.295 92.6547 149.651 93.911 146.008Z" fill="#191832"/>
<path d="M98.6025 175.775C97.6533 172.306 97.6533 168.844 98.6025 165.375C98.6025 168.844 98.6025 172.306 98.6025 175.775Z" fill="#E5DFEA"/>
<path d="M191.333 142.501C191.291 139.025 191.249 135.542 191.207 132.066C192.554 135.528 192.219 139.011 191.333 142.501Z" fill="#191832"/>
<path d="M98.0078 194.464C98.3428 191.26 97.3447 187.98 98.6011 184.832C98.6778 187.603 98.7546 190.381 98.8314 193.152C98.7546 193.605 98.6778 194.052 98.6011 194.506C98.3777 194.813 98.1823 194.785 98.0078 194.464Z" fill="#E5DFEA"/>
<path d="M97.2656 140.944C97.2656 137.985 97.2656 135.026 97.2726 132.066C98.501 135.026 98.501 137.985 97.2656 140.944Z" fill="#191832"/>
<path d="M167.679 132.108C167.902 132.052 168.133 132.059 168.356 132.122C168.356 135.061 168.349 137.999 168.342 140.944C166.723 138.104 167.944 135.054 167.679 132.115V132.108Z" fill="#A7A4B4"/>
<path d="M102.957 109.86C102.894 112.394 102.832 114.921 102.769 117.454C102.58 117.44 102.385 117.419 102.196 117.398C102.176 115.318 102.155 113.245 102.141 111.166C102.266 110.433 101.98 109.532 102.957 109.148C103.153 109.309 103.215 109.463 103.146 109.623C103.083 109.777 103.013 109.86 102.95 109.86H102.957Z" fill="#191832"/>
<path d="M162.827 118.124C162.799 115.339 162.771 112.554 162.75 109.77C163.853 112.547 163.734 115.332 162.827 118.124Z" fill="#33314F"/>
<path d="M162.666 109.839C161.046 109.79 159.42 109.741 157.801 109.7C159.448 108.869 161.081 108.499 162.666 109.839Z" fill="#191832"/>
<path d="M98.601 182.724C97.7146 181.342 97.7076 179.96 98.601 178.578C98.601 179.96 98.601 181.342 98.601 182.724Z" fill="#E5DFEA"/>
<path d="M102.956 109.86C102.956 109.623 102.956 109.392 102.956 109.155C104.352 109.239 105.846 108.576 107.109 109.693C105.72 109.748 104.338 109.804 102.949 109.86H102.956Z" fill="#191832"/>
<path d="M103.516 104.137C103.306 104.43 103.097 104.73 102.888 105.023C101.701 104.96 100.515 104.904 99.3281 104.842C100.557 103.613 102.148 104.542 103.509 104.137H103.516Z" fill="#191832"/>
<path d="M157.276 93.1025C158.163 92.4046 159.049 91.7136 159.935 91.0156C158.602 93.968 160.815 96.8366 160.054 99.9006C159.545 101.96 159.147 102.574 157.276 101.436C156.55 100.473 157.039 99.3842 156.934 98.3582C157.165 96.6133 156.383 94.7986 157.276 93.1025Z" fill="#191832"/>
<path d="M157.74 98.6641C158.166 99.6831 157.573 100.542 157.287 101.442C157.07 102.531 156.693 103.543 155.835 104.311C155.584 104.241 155.332 104.178 155.074 104.108C153.769 100.569 154.537 99.0061 157.74 98.6641Z" fill="#FCC000"/>
<path d="M162.624 92.4533C163.482 92.4463 164.369 92.6696 164.452 93.5909C164.543 94.5262 163.608 94.4983 162.959 94.4774C162.233 94.4494 161.144 94.8263 160.99 93.7515C160.851 92.7604 161.793 92.551 162.624 92.4603V92.4533Z" fill="#191832"/>
<path d="M68.7201 145.986C68.762 162.185 68.8039 178.385 68.8457 194.585L68.755 194.515C68.0361 195.052 67.1985 194.871 66.4099 194.871C46.7763 194.878 27.1357 194.878 7.50216 194.871C6.81118 194.871 6.11322 194.941 5.45714 194.647C5.04535 194.019 5.14306 193.314 5.14306 192.63C5.14306 177.848 5.14306 163.058 5.14306 148.275C5.14306 147.493 4.91971 146.642 5.56184 145.965C26.6123 145.965 47.6627 145.979 68.7061 145.986H68.7201Z" fill="#E4D9E9"/>
<path d="M5.59647 194.492C26.6539 194.499 47.7043 194.506 68.7617 194.52C68.3918 195.644 67.4216 195.218 66.7097 195.218C46.3363 195.218 25.9559 195.183 5.58251 195.155C5.32427 195.002 5.24051 194.855 5.32427 194.709C5.415 194.562 5.49876 194.492 5.58949 194.492H5.59647Z" fill="#AFA7BB"/>
<path d="M5.59706 194.495C5.53425 194.718 5.53425 194.934 5.59008 195.158C4.52919 194.599 4.80139 193.587 4.80139 192.708C4.78743 177.939 4.78743 163.17 4.80139 148.409C4.80139 147.543 4.46637 146.51 5.57612 145.973C5.5831 162.151 5.59008 178.323 5.59706 194.502V194.495Z" fill="#54516C"/>
<path d="M98.007 194.465C98.2024 194.507 98.3979 194.521 98.6003 194.507C98.3909 195.519 97.5533 195.219 96.9461 195.219C89.4291 195.205 81.9121 195.163 74.3951 195.121C74.3741 194.898 74.3951 194.681 74.43 194.465C82.289 194.465 90.148 194.465 98.007 194.465Z" fill="#191832"/>
<path d="M120.166 194.508C120.173 194.738 120.18 194.968 120.187 195.199C115.469 195.213 110.751 195.262 106.04 195.206C105.251 195.199 104.148 195.785 103.688 194.508C109.18 194.508 114.673 194.508 120.166 194.508Z" fill="#CB970D"/>
<path d="M11.1256 32.6915C8.4664 36.2581 6.08636 39.9573 5.37445 44.4661C2.40812 43.4191 1.85674 40.9135 4.31355 38.1146C5.33955 36.9491 5.98865 35.8463 6.47024 34.3875C7.21706 32.1401 8.89914 31.4282 11.1186 32.6915H11.1256Z" fill="#191832"/>
<path d="M83.5234 101.434C83.5234 99.1236 83.5234 96.8063 83.5234 94.4961C84.4587 96.8063 84.4587 99.1236 83.5234 101.434Z" fill="#24203A"/>
<path d="M107.82 102.119C106.201 102.245 104.497 101.791 103.011 102.817C101.036 97.5753 102.299 92.6059 104.477 87.8109C107.373 81.4455 112.322 76.7203 117.466 72.1836C118.736 73.6284 119.106 75.3314 118.91 77.1949C119.12 79.1422 117.333 79.8053 116.447 81.0546C114.674 82.653 113.173 84.4677 111.952 86.5127C111.344 87.42 110.716 88.3134 110.249 89.3115C109.341 91.0075 108.846 92.8432 108.315 94.6718C107.98 95.7816 107.931 96.9262 107.98 98.0779C107.869 99.4249 108.692 100.807 107.827 102.126L107.82 102.119Z" fill="#191832"/>
<path d="M111.353 86.1542C110.976 87.1314 111.5 85.8779 111.353 86.1542C112.5 83.9966 116.071 80.5008 116.071 80.5008C117.021 79.398 117.963 78.2882 118.912 77.1855C120.287 75.978 121.662 74.7705 123.03 73.5631C124 72.7069 125.421 71.1421 126 70.5C126.544 69.6904 128.918 67.6989 130 67.4965C135.737 66.2891 137.513 71.2738 141.568 75.1335C142.336 75.8663 143.731 75.7826 144.716 76.3898C150.292 80.9126 154.843 86.217 157.272 93.0989C158.158 94.8927 157.858 96.7841 157.726 98.6616C154.78 99.4713 155.094 101.879 155.059 104.106C148.575 104.12 142.091 104.134 135.607 104.141C134.777 101.956 134.749 99.6318 134.379 97.3774C133.374 95.3394 132.306 94.3134 130.994 97.175C131.063 99.5829 130.715 101.921 130.01 104.21C123.749 104.176 117.488 104.141 111.228 104.106C106.001 104.997 107.165 97.9637 107.165 97.9637C107.228 96.7841 107 94.9966 108 93.0989C109 90.4966 109 90.4966 109.811 88.8693L111.353 86.1542Z" fill="#FCC000"/>
<path d="M144.723 76.3996C141.017 77.649 139.209 74.3406 136.815 72.8191C134.644 71.4441 133.06 69.8737 130.296 71.4301C129.48 71.8908 127.686 72.2049 127.246 70.2995C132.369 66.7468 131.881 66.0279 137.346 70.0342C139.991 71.9746 142.713 73.7613 144.73 76.3996H144.723Z" fill="#FCC000"/>
<path d="M125.121 72.1836C125.114 73.0351 125.345 74.0332 124.409 74.5078C123.6 74.9196 123.334 74.1169 123.027 73.5725C123.425 72.6582 124.123 72.1976 125.121 72.1836Z" fill="#FCC000"/>
<path d="M242.148 158.397C243.768 156.01 245.387 156.38 247.013 158.397C247.397 160.03 247.362 161.663 247.034 163.303C245.61 164.93 244.263 167.114 242.169 163.994C242.546 162.131 242.56 160.26 242.155 158.397H242.148Z" fill="#191832"/>
<path d="M209.414 158.347C211.675 156.288 212.946 156.469 214.286 159.038C214.691 160.475 214.684 161.913 214.286 163.351C214.181 164.705 213.511 165.375 212.094 165.375C210.656 165.375 210.035 164.649 209.938 163.316C209.281 161.711 210.133 159.945 209.414 158.347Z" fill="#191832"/>
<path d="M230.244 182.803C230.132 184.702 228.597 184.827 227.361 184.723C225.896 184.59 226.077 183.124 225.917 182.035C225.582 180.884 225.589 179.725 225.917 178.574C226.301 177.883 225.477 176.347 227.026 176.563C228.122 176.717 230.007 175.321 230.244 177.799C230.719 179.467 230.726 181.142 230.244 182.81V182.803Z" fill="#191832"/>
<path d="M247.013 182.755C245.387 185.135 243.768 185.98 242.148 182.755C242.832 180.919 241.939 178.937 242.679 177.108C244.347 176.082 245.862 175.964 247.027 177.855C247.362 179.489 247.39 181.129 247.013 182.762V182.755Z" fill="#191832"/>
<path d="M225.922 159.115C226.054 157.817 226.599 156.986 228.072 157C229.46 157.014 230.235 157.586 230.249 159.024C230.717 160.469 230.724 161.907 230.249 163.352C230.228 165.034 229.209 165.466 227.744 165.355C225.929 165.215 226.089 163.791 225.922 162.577C225.587 161.425 225.58 160.267 225.922 159.115Z" fill="#191832"/>
<path d="M209.938 177.135C211.585 176.082 213.093 175.907 214.286 177.806C214.691 179.467 214.698 181.135 214.286 182.796C212.828 184.534 211.376 186.642 209.952 182.768C209.554 180.89 209.561 179.013 209.952 177.135H209.938Z" fill="#191832"/>
<path d="M209.938 177.137C209.938 179.014 209.938 180.892 209.938 182.769C208.982 180.892 208.996 179.014 209.938 177.137Z" fill="#928BA2"/>
<path d="M242.686 177.102C242.533 178.986 243.3 180.961 242.156 182.748C242.253 180.857 241.374 178.874 242.686 177.102Z" fill="#494762"/>
<path d="M242.148 158.395C243.021 160.258 243.056 162.122 242.162 163.992C242.162 162.129 242.155 160.265 242.148 158.395Z" fill="#494763"/>
<path d="M214.281 182.795C214.281 181.134 214.281 179.466 214.281 177.805C215.279 179.473 215.279 181.134 214.281 182.795Z" fill="#6A667F"/>
<path d="M230.242 182.8C230.242 181.132 230.242 179.457 230.242 177.789C231.331 179.457 231.324 181.132 230.242 182.8Z" fill="#232442"/>
<path d="M247.016 182.754C247.016 181.121 247.03 179.488 247.03 177.848C247.937 179.488 247.951 181.121 247.016 182.754Z" fill="#B0A8BD"/>
<path d="M209.417 158.348C210.59 159.897 209.871 161.649 209.941 163.317C208.782 161.761 209.515 160.009 209.417 158.348Z" fill="#908AA1"/>
<path d="M247.037 163.301C247.037 161.668 247.023 160.035 247.016 158.395C247.958 160.028 247.944 161.661 247.037 163.301Z" fill="#B0A9BD"/>
<path d="M230.242 163.351C230.242 161.906 230.242 160.468 230.242 159.023C231.275 160.468 231.268 161.906 230.242 163.351Z" fill="#222241"/>
<path d="M214.293 163.349C214.293 161.911 214.293 160.473 214.293 159.035C215.291 160.473 215.249 161.911 214.293 163.349Z" fill="#68657E"/>
<path d="M225.913 178.574C225.913 179.726 225.913 180.884 225.913 182.036C225.055 180.884 225.055 179.726 225.913 178.574Z" fill="#D4C9DA"/>
<path d="M225.921 159.113C225.921 160.265 225.921 161.424 225.921 162.575C225.063 161.424 225.063 160.265 225.921 159.113Z" fill="#D5CBDB"/>
<path d="M130.121 95.8316C132.355 93.7517 133.632 93.9332 134.986 96.5156C135.286 98.4001 135.593 100.285 134.783 102.134H130.826C129.709 100.131 130.938 97.8627 130.121 95.8316Z" fill="#191832"/>
<path d="M134.781 102.138C134.851 100.268 134.914 98.3901 134.984 96.5195C136.317 98.9694 135.235 101.622 135.619 104.148C135.605 104.372 135.598 104.588 135.591 104.811C134.349 104.211 135.172 102.997 134.788 102.138H134.781Z" fill="#191832"/>
<path d="M130.12 95.8281C131.439 97.8103 130.302 100.065 130.825 102.131C130.588 102.836 130.993 103.792 130.016 104.218C130.051 101.419 130.085 98.6269 130.113 95.8281H130.12Z" fill="#191832"/>
<path d="M55.6695 163.316C54.8877 164.44 54.127 165.515 52.4589 165.389C51.4747 165.319 51.391 164.761 51.3212 164.056C50.6232 162.207 51.4887 160.224 50.8047 158.375C53.0172 156.274 54.3154 156.462 55.6764 159.073C56.0324 160.49 56.0464 161.899 55.6695 163.316Z" fill="#191832"/>
<path d="M22.936 163.351C22.8732 164.74 22.1682 165.376 20.7583 165.376C19.3136 165.376 18.7064 164.622 18.6017 163.296C18.2317 161.662 18.2317 160.022 18.6017 158.389C20.2837 156.218 21.561 156.407 22.9499 159.031C23.3757 160.476 23.3827 161.914 22.9499 163.351H22.936Z" fill="#191832"/>
<path d="M51.3298 177.099C52.9979 176.073 54.5125 175.926 55.6781 177.839C56.055 179.479 56.062 181.126 55.6781 182.766C53.9565 184.679 52.3372 184.679 50.8203 182.766C51.5113 180.924 50.6388 178.941 51.3368 177.099H51.3298Z" fill="#191832"/>
<path d="M22.9438 182.816C20.3405 185.643 20.0543 185.636 18.5956 182.754C18.2396 180.883 18.2256 179.02 18.6025 177.149C20.2009 176.353 21.8201 175.383 22.9369 177.791C23.3836 179.466 23.3696 181.141 22.9369 182.816H22.9438Z" fill="#191832"/>
<path d="M39.6851 182.029C38.5684 184.241 37.4307 186.363 34.8343 183.411C35.1833 181.331 35.2112 179.258 34.8203 177.178C37.0119 175.636 38.6172 176.159 39.6851 178.567C40.0201 179.719 40.0271 180.87 39.6851 182.022V182.029Z" fill="#191832"/>
<path d="M39.6929 162.576C37.606 166.129 37.0825 166.282 34.8281 163.958C35.5121 161.899 34.5699 159.7 35.3725 157.648C37.5711 155.917 38.5762 157.676 39.6859 159.114C40.0279 160.266 40.0279 161.417 39.6859 162.569L39.6929 162.576Z" fill="#191832"/>
<path d="M35.3718 157.648C35.1624 159.749 35.986 161.941 34.8274 163.958C34.9181 161.85 34.0457 159.652 35.3718 157.648Z" fill="#1E1F3D"/>
<path d="M34.8281 177.184C35.7285 179.257 35.7145 181.336 34.8421 183.416C34.8421 181.336 34.8351 179.264 34.8281 177.184Z" fill="#1E1F3D"/>
<path d="M51.3272 177.102C51.2155 179 51.9624 180.968 50.8107 182.769C50.8805 180.871 50.1267 178.895 51.3272 177.102Z" fill="#635F78"/>
<path d="M18.6007 177.156C18.6007 179.027 18.6007 180.89 18.5937 182.761C17.6724 180.89 17.6794 179.027 18.6007 177.156Z" fill="#AAA2B7"/>
<path d="M50.8121 158.375C51.9707 160.176 51.2099 162.158 51.3286 164.056C50.0792 162.263 50.9028 160.273 50.8121 158.375Z" fill="#645F79"/>
<path d="M22.9414 182.814C22.9414 181.139 22.9414 179.464 22.9414 177.789C23.9814 179.464 23.9604 181.139 22.9414 182.814Z" fill="#524F6B"/>
<path d="M55.668 182.767C55.668 181.127 55.668 179.48 55.668 177.84C56.6242 179.487 56.6242 181.127 55.668 182.767Z" fill="#9691A7"/>
<path d="M18.5947 158.387C18.5947 160.02 18.5947 161.66 18.5947 163.293C17.6455 161.66 17.6664 160.02 18.5947 158.387Z" fill="#AAA3B8"/>
<path d="M55.668 163.314C55.668 161.897 55.668 160.487 55.6749 159.07C56.6172 160.487 56.5753 161.904 55.668 163.314Z" fill="#958FA5"/>
<path d="M22.9336 163.352C22.9336 161.914 22.9336 160.469 22.9336 159.031C23.9596 160.476 23.9317 161.914 22.9336 163.352Z" fill="#504D69"/>
<path d="M39.6875 182.029C39.6875 180.877 39.6875 179.726 39.6875 178.574C40.546 179.726 40.553 180.877 39.6875 182.029Z" fill="#DACFE1"/>
<path d="M39.6914 162.576C39.6914 161.424 39.6914 160.273 39.6914 159.121C40.5569 160.273 40.5569 161.424 39.6914 162.576Z" fill="#DBD0E1"/>
</g>
<defs>
<clipPath id="clip0_15754_29233">
<rect width="265.699" height="200" fill="white"/>
</clipPath>
</defs>
</svg>
